<svg width="80" height="80" viewBox="0 0 80 80" fill="none" xmlns="http://www.w3.org/2000/svg">
<g clip-path="url(#clip0_2125_61075)">
<path d="M60.6173 0H19.3827C8.67653 0 0 8.67653 0 19.3827V60.6173C0 71.3235 8.67653 80 19.3827 80H60.6173C71.3235 80 80 71.3235 80 60.6173V19.3827C80.0169 8.67653 71.3235 0 60.6173 0Z" fill="#1D2F45"/>
</g>
<path d="M8.30634 45L12.7991 34.92H15.1031L19.6103 45H17.1623L13.4759 36.1008H14.3975L10.6967 45H8.30634ZM10.5527 42.84L11.1719 41.0688H16.3559L16.9895 42.84H10.5527ZM30.4193 37.1376C31.0337 37.1376 31.5761 37.2624 32.0465 37.512C32.5265 37.752 32.9009 38.1264 33.1697 38.6352C33.4481 39.1344 33.5873 39.7776 33.5873 40.5648V45H31.3409V40.9104C31.3409 40.2864 31.2113 39.8256 30.9521 39.528C30.6929 39.2304 30.3281 39.0816 29.8577 39.0816C29.5313 39.0816 29.2385 39.1584 28.9793 39.312C28.7201 39.456 28.5185 39.6768 28.3745 39.9744C28.2305 40.272 28.1585 40.6512 28.1585 41.112V45H25.9121V40.9104C25.9121 40.2864 25.7825 39.8256 25.5233 39.528C25.2737 39.2304 24.9137 39.0816 24.4433 39.0816C24.1169 39.0816 23.8241 39.1584 23.5649 39.312C23.3057 39.456 23.1041 39.6768 22.9601 39.9744C22.8161 40.272 22.7441 40.6512 22.7441 41.112V45H20.4977V37.2528H22.6433V39.3696L22.2401 38.7504C22.5089 38.2224 22.8881 37.824 23.3777 37.5552C23.8769 37.2768 24.4433 37.1376 25.0769 37.1376C25.7873 37.1376 26.4065 37.32 26.9345 37.6848C27.4721 38.04 27.8273 38.5872 28.0001 39.3264L27.2081 39.1104C27.4673 38.5056 27.8801 38.0256 28.4465 37.6704C29.0225 37.3152 29.6801 37.1376 30.4193 37.1376ZM40.3529 45V43.488L40.2089 43.1568V40.4496C40.2089 39.9696 40.0601 39.5952 39.7625 39.3264C39.4745 39.0576 39.0281 38.9232 38.4233 38.9232C38.0105 38.9232 37.6025 38.9904 37.1993 39.1248C36.8057 39.2496 36.4697 39.4224 36.1913 39.6432L35.3849 38.0736C35.8073 37.776 36.3161 37.5456 36.9113 37.3824C37.5065 37.2192 38.1113 37.1376 38.7257 37.1376C39.9065 37.1376 40.8233 37.416 41.4761 37.9728C42.1289 38.5296 42.4553 39.3984 42.4553 40.5792V45H40.3529ZM37.9913 45.1152C37.3865 45.1152 36.8681 45.0144 36.4361 44.8128C36.0041 44.6016 35.6729 44.3184 35.4425 43.9632C35.2121 43.608 35.0969 43.2096 35.0969 42.768C35.0969 42.3072 35.2073 41.904 35.4281 41.5584C35.6585 41.2128 36.0185 40.944 36.5081 40.752C36.9977 40.5504 37.6361 40.4496 38.4233 40.4496H40.4825V41.76H38.6681C38.1401 41.76 37.7753 41.8464 37.5737 42.0192C37.3817 42.192 37.2857 42.408 37.2857 42.6672C37.2857 42.9552 37.3961 43.1856 37.6169 43.3584C37.8473 43.5216 38.1593 43.6032 38.5529 43.6032C38.9273 43.6032 39.2633 43.5168 39.5609 43.344C39.8585 43.1616 40.0745 42.8976 40.2089 42.552L40.5545 43.5888C40.3913 44.088 40.0937 44.4672 39.6617 44.7264C39.2297 44.9856 38.6729 45.1152 37.9913 45.1152ZM43.9556 45V43.6464L48.5348 38.232L48.9236 38.9808H44.0564V37.2528H50.738V38.6064L46.1588 44.0208L45.7556 43.272H50.8676V45H43.9556ZM55.8951 45.1152C55.0695 45.1152 54.3351 44.9424 53.6919 44.5968C53.0583 44.2512 52.5543 43.7808 52.1799 43.1856C51.8151 42.5808 51.6327 41.8944 51.6327 41.1264C51.6327 40.3488 51.8151 39.6624 52.1799 39.0672C52.5543 38.4624 53.0583 37.992 53.6919 37.656C54.3351 37.3104 55.0695 37.1376 55.8951 37.1376C56.7111 37.1376 57.4407 37.3104 58.0839 37.656C58.7271 37.992 59.2311 38.4576 59.5959 39.0528C59.9607 39.648 60.1431 40.3392 60.1431 41.1264C60.1431 41.8944 59.9607 42.5808 59.5959 43.1856C59.2311 43.7808 58.7271 44.2512 58.0839 44.5968C57.4407 44.9424 56.7111 45.1152 55.8951 45.1152ZM55.8951 43.272C56.2695 43.272 56.6055 43.1856 56.9031 43.0128C57.2007 42.84 57.4359 42.5952 57.6087 42.2784C57.7815 41.952 57.8679 41.568 57.8679 41.1264C57.8679 40.6752 57.7815 40.2912 57.6087 39.9744C57.4359 39.6576 57.2007 39.4128 56.9031 39.24C56.6055 39.0672 56.2695 38.9808 55.8951 38.9808C55.5207 38.9808 55.1847 39.0672 54.8871 39.24C54.5895 39.4128 54.3495 39.6576 54.1671 39.9744C53.9943 40.2912 53.9079 40.6752 53.9079 41.1264C53.9079 41.568 53.9943 41.952 54.1671 42.2784C54.3495 42.5952 54.5895 42.84 54.8871 43.0128C55.1847 43.1856 55.5207 43.272 55.8951 43.272ZM66.3534 37.1376C66.9678 37.1376 67.515 37.2624 67.995 37.512C68.4846 37.752 68.8686 38.1264 69.147 38.6352C69.4254 39.1344 69.5646 39.7776 69.5646 40.5648V45H67.3182V40.9104C67.3182 40.2864 67.179 39.8256 66.9006 39.528C66.6318 39.2304 66.2478 39.0816 65.7486 39.0816C65.3934 39.0816 65.0718 39.1584 64.7838 39.312C64.5054 39.456 64.2846 39.6816 64.1214 39.9888C63.9678 40.296 63.891 40.6896 63.891 41.1696V45H61.6446V37.2528H63.7902V39.3984L63.387 38.7504C63.6654 38.232 64.0638 37.8336 64.5822 37.5552C65.1006 37.2768 65.691 37.1376 66.3534 37.1376Z" fill="white"/>
<defs>
<clipPath id="clip0_2125_61075">
<rect width="80" height="80" fill="white"/>
</clipPath>
</defs>
</svg>
