<?xml version="1.0" encoding="utf-8"?>
<!-- Generator: Adobe Illustrator 23.0.4, SVG Export Plug-In . SVG Version: 6.00 Build 0)  -->
<svg version="1.1" id="Capa_1" xmlns="http://www.w3.org/2000/svg" xmlns:xlink="http://www.w3.org/1999/xlink" x="0px" y="0px"
	 viewBox="0 0 473 473" style="enable-background:new 0 0 473 473;" xml:space="preserve">
<style type="text/css">
	.st0{fill:#EBEBEB;}
	.st1{fill:#64A253;}
	.st2{fill:#3359A4;}
</style>
<g>
	<path class="st0" d="M358.4,0H114.6C51.3,0,0,51.3,0,114.6v243.8C0,421.7,51.3,473,114.6,473h243.8c63.3,0,114.6-51.3,114.6-114.6
		V114.6C473,51.3,421.7,0,358.4,0z"/>
	<g>
		<g>
			<path class="st1" d="M349,212.1c-1.1-0.4-0.7-1-0.5-1.6c0.2-0.7,0.4-1.3,0.7-1.9c0.1-0.2,0.4-0.5,0.7-0.5c0.5-0.1,0.9,0,1.4,0
				c7.5,0,15,0,22.6,0c0.8,0,1.5,0,2.3,0.1c0.3,0,0.6,0.1,1,0.2c0.1,0,0.3,0.2,0.4,0.2c1.1-0.1,2,0.4,3,0.8c0.9,0.4,1.8,0.7,2.7,1.2
				c0.9,0.4,2,0.8,2.7,1.5c0.7,0.6,1.8,0.6,2.1,1.6c0.1,0.2,0.5,0.2,0.7,0.4c0.4,0.5,0.8,1.1,1.2,1.7c0.1,0.1,0.2,0.2,0.3,0.3
				c0.2,0.3,0.5,0.6,0.7,0.9c0.1,0.2,0.2,0.6,0.4,0.7c0.9,0.8,1.2,1.9,1.8,2.9c0.2,0.3,0.2,0.7,0.3,1.1c0,0.1,0,0.2,0,0.3
				c0.9,1.6,1.2,3.3,1.1,5.1c0,0.2,0.1,0.5,0.1,0.7c0,0.4,0.2,0.8,0.1,1.1c-0.2,1.1-0.4,2.1-0.6,3.2c0,0.2-0.1,0.4-0.1,0.7
				c-0.1,0.8-0.2,1.5-0.5,2.2c-0.4,1.2-1,2.4-1.5,3.6c-0.7,1.4-1.4,2.8-2.2,4.1c-0.2,0.4-0.7,0.6-1,1c-0.3,0.4-0.6,0.9-1,1.3
				c-0.7,0.9-1.4,1.7-2.2,2.5c-0.4,0.4-0.3,0.8-0.1,1.2c0.6,1,1.2,2,1.7,3c0.6,1.2,1.2,2.5,1.8,3.7c0.3,0.5,0.8,1,1,1.5
				c0.7,1.3,1.3,2.6,2.1,3.8c0.4,0.6,0.4,1.4,1.1,1.9c0.3,0.2,0.4,0.8,0.6,1.3c0.1,0.3,0.3,0.5,0.4,0.7c0.2,0.4,0.5,0.7,0.8,1.2
				c-0.6,0.1-1.1,0.2-1.5,0.2c-5.9,0-11.7,0-17.6,0c-0.7,0-1.3-0.6-1.5-1.3c-0.1-0.3-0.2-0.6-0.4-0.8c0-0.1-0.1-0.2-0.2-0.3
				c-0.5-2-1.9-3.6-2.4-5.6c-0.1-0.5-0.5-0.9-0.7-1.4c-0.1-0.3-0.3-0.6-0.4-1c-0.1-1-1-1.6-1.3-2.4c-0.1-0.3-0.3-0.5-0.4-0.8
				c-0.3-0.5-0.7-0.6-1.3-0.6c-0.5,0-0.6,0.4-0.7,0.8c0,0.2-0.1,0.5-0.1,0.7c0,3.9,0,7.7,0,11.6c0,1-0.1,1.1-1.1,1.1
				c-4.5,0-9,0-13.5,0c-1.9,0-1.9,0-1.9-1.9c0-11.6,0-23.1,0-34.7c0-1-0.1-2.1-0.2-3.1c0-0.6-0.3-1.1-1-1.3c-1.2-0.4-2.2-1-3.3-1.5
				c-0.2-0.1-0.5-0.4-0.5-0.6c0-0.3,0.2-0.5,0.4-0.8c0.1-0.2,0.3-0.3,0.3-0.5c0.1-1.7,0.5-3.3,0.9-5c0.2-0.8,0.4-1.7,0.6-2.5
				C347.8,213.2,348.1,212.5,349,212.1z M367.2,229.6C367.2,229.6,367.2,229.6,367.2,229.6c0,1.3,0,2.6,0,4c0,0.6,0.3,1.1,0.9,1.1
				c1.9,0,3.7,0.1,5.6-0.1c1.1-0.1,1.9-0.7,2.6-1.6c0.4-0.6,0.9-1.2,1-1.8c0.2-1.3,0.3-2.5-0.3-3.8c-0.5-1-1-2-2-2.4
				c-0.8-0.3-1.8-0.5-2.6-0.5c-1.1-0.1-2.2,0-3.3-0.1c-1.2-0.1-1.8,0.3-1.8,1.5C367.2,227.1,367.2,228.4,367.2,229.6z"/>
			<path class="st1" d="M309.8,208.5c3.4,0,6.8,0,10.2,0c2.7,0,5.5,0,8.2-0.1c0.6,0,0.7,0.3,0.8,0.8c0.1,0.8,0,1.7,0.6,2.4
				c0.1,0.1,0.1,0.3,0.2,0.5c0.7,2.3,1.3,4.6,2,7c0,0.1,0.1,0.2,0.1,0.3c0.4,1.5,0.8,3.1,1.2,4.6c0.3,1.3,0.7,2.7,1,4
				c0.4,1.3,0.8,2.5,1.2,3.7c0.1,0.4,0.2,0.8,0.1,1.2c0,0.2-0.3,0.4-0.5,0.7c0.3,0.1,0.6,0.1,0.8,0.2c0.2,0.1,0.4,0.4,0.4,0.6
				c0,1,0.4,1.8,0.7,2.8c0.4,1.4,0.7,2.9,1.1,4.4c0.5,1.8,1.1,3.5,1.6,5.3c0.1,0.2,0.1,0.3,0.1,0.5c0.4,1.4,0.9,2.9,1.3,4.3
				c0.4,1.4,0.7,2.8,1,4.2c0.1,0.4,0.3,0.8,0.4,1.2c0.3,1,0.6,2,0.9,3c0.3,1,0.5,2,0.8,3c0.1,0.2,0.1,0.4,0.1,0.6
				c0,0.4,0,0.9,0.4,1.2c0.1,0.1,0.2,0.3,0.3,0.5c0.2,0.7,0,1-0.7,1c-1.2,0-2.4,0-3.5,0c-4.1,0-8.2,0-12.3,0c-0.7,0-1.1-0.3-1.3-0.9
				c-0.3-1.1-0.5-2.1-0.8-3.2c-0.3-1.1-0.6-2.3-0.9-3.4c-0.2-0.6-0.7-1-1.3-1.1c-0.4,0-0.8-0.1-1.2-0.1c-4.4,0-8.7,0-13.1,0
				c-1.1,0-1.8,0.3-2.2,1.4c-0.3,1-0.9,1.9-1.2,2.9c-0.3,0.8-0.5,1.7-0.8,2.6c-0.4,1.1-0.5,1.2-1.7,1.2c-2.6,0-5.2,0-7.8,0
				c-2.4,0-4.7,0-7.1,0c-0.8,0-0.8-0.1-0.6-0.9c0.3-1,0.5-2,0.8-3c0.3-1,0.4-2,0.8-2.9c0.7-1.7,0.9-3.5,1.5-5.2
				c0.6-1.9,1.2-3.9,1.7-5.8c0.4-1.5,0.7-3.1,1.1-4.6c0.2-0.9,0.6-1.8,0.9-2.7c0.4-1.5,0.6-3,1.3-4.4c0.8-1.8,0.7-3.8,1.5-5.6
				c0.4-0.9,0.6-1.8,0.7-2.7c0-0.6,0.4-1.1,0.5-1.7c0.1-0.5-0.1-0.9-0.5-1.3c-0.6-0.6-1.2-1.2-1.8-1.7c-0.8-0.8-0.8-2.7,0-3.5
				c0.1-0.1,0.1-0.2,0.2-0.3c0.1-0.7,0.3-1.3,0.4-2c0.1-0.6,0.2-1.3,0.5-1.8c0.6-1,0.4-2.2,0.8-3.3c0.4-1.1,0.7-2.1,1-3.2
				c0.1-0.6,0.5-0.7,1-0.7c2.7,0,5.4,0,8.1,0C309.1,208.4,309.4,208.4,309.8,208.5C309.8,208.4,309.8,208.5,309.8,208.5z
				 M316.2,243.5C316.2,243.5,316.2,243.5,316.2,243.5c1.4,0,2.7-0.1,4.1-0.1c0.5,0,0.6-0.3,0.6-0.6c-0.1-0.9-0.3-1.7-0.5-2.6
				c-0.2-0.8-0.5-1.6-0.7-2.4c-0.2-0.8-0.4-1.7-0.6-2.5c-0.6-1.7-1.4-3.4-1.4-5.3c0-0.1,0-0.2-0.1-0.3c-0.3-1-0.7-2-1-3.1
				c-0.1-0.4-0.3-0.9-0.7-0.7c-0.2,0.1-0.4,0.5-0.5,0.8c-0.4,1.2-0.7,2.5-1,3.7c-0.1,0.6-0.3,1.2-0.4,1.7c-0.1,0.3-0.1,0.7-0.1,1.1
				c-0.3,1.3-0.7,2.6-1.1,4c-0.2,0.7-0.1,1.5-0.7,2.1c-0.1,0.1-0.1,0.3-0.1,0.4c-0.1,0.8-0.2,1.7-0.4,2.5c-0.2,0.7-0.1,1,0.6,1.1
				c0.4,0.1,0.8,0.1,1.2,0.2C314.3,243.5,315.2,243.5,316.2,243.5z"/>
			<path class="st1" d="M239.4,223.3c0.4-0.8,0.7-1.6,1-2.3c0.1-0.1,0.1-0.3,0.1-0.4c0.3-2.3,1.2-4.4,1.8-6.6
				c0.4-1.4,1.2-2.6,1.3-4.1c0-0.6,0.3-1.2,0.6-1.7c0.1-0.2,0.6-0.2,0.8-0.2c2.3,0,4.6,0,6.8,0c3.8,0,7.6,0,11.4,0
				c0.9,0,1.9-0.1,2.8,0.4c0.3,0.2,0.8,0.1,1.1,0.2c1.5,0.5,3,1,4.5,1.4c0.3,0.1,0.7,0.1,1,0.2c1.3,0.6,2.6,1.1,3.9,1.8
				c0.9,0.5,1.8,1,2.6,1.7c1.3,1.1,2.6,2.3,3.9,3.6c0.6,0.6,1.3,1.2,1.6,2c0.3,0.9,1.1,1.4,1.5,2.3c0.3,0.9,0.9,1.7,1.2,2.6
				c0.4,0.9,0.7,1.9,1,2.8c0.2,0.5,0.4,1.1,0.5,1.6c0.1,0.6,0.2,1.2,0.4,1.8c0.7,2.8,0.6,5.6,0.5,8.4c0,0.3,0,0.6-0.1,0.9
				c-0.1,0.8-0.3,1.7-0.5,2.5c-0.4,1.6-0.8,3.2-1.2,4.7c-0.3,1-0.6,2-1.1,2.8c-0.6,1.1-0.7,2.5-1.9,3.4c-0.1,0.1-0.2,0.2-0.2,0.3
				c-0.1,0.8-0.6,1.3-1.1,1.9c-0.2,0.3-0.4,0.6-0.6,0.9c-0.9,1-1.7,2.1-2.7,2.9c-1.1,0.9-2.4,1.7-3.6,2.5c-0.9,0.6-1.7,1.1-2.6,1.7
				c-0.1,0.1-0.2,0.2-0.4,0.3c-1.3,0.5-2.7,1.1-4,1.5c-0.9,0.2-1.9,0.2-2.8,0.2c-7.3,0-14.5,0-21.8,0c-0.9,0-1.2-0.3-1.2-1.2
				c0-2.2,0-4.4,0-6.5c0-2.9,0-5.8,0-8.7c0-1.6-0.1-3.2-0.1-4.7c0-2.8,0.1-5.5,0.1-8.3c0-2.4,0-4.9,0-7.3c0-0.8,0.2-1.6-0.1-2.4
				c-0.1-0.3-0.2-0.6-0.4-0.8c-0.7-0.4-1.4-0.8-2.1-1.2C240.8,223.8,240.2,223.6,239.4,223.3z M260.3,236.7c0,2.4,0,4.8,0,7.2
				c0,1-0.1,2,0,3c0.1,1.1,0.6,1.4,1.3,1.3c1.2-0.1,2.4-0.1,3.5-0.4c1-0.2,1.9-0.6,2.7-1.2c0.9-0.6,1.7-1.5,2.2-2.6
				c0.2-0.4,0.4-0.8,0.6-1.2c0.3-0.6,0.6-1.2,0.7-1.8c0.3-2.2,0.7-4.5,0.2-6.7c-0.2-0.8-0.3-1.7-0.5-2.5c-0.3-0.9-0.6-1.9-1.1-2.8
				c-0.8-1.5-2.1-2.7-3.5-3.8c-0.7-0.5-1.5-1.2-2.5-1.1c-0.8,0.1-1.6,0.1-2.5,0.1c-0.7,0-1.1,0.3-1.1,1c0,0.7,0,1.4,0,2.1
				C260.3,230.5,260.3,233.6,260.3,236.7z"/>
			<path class="st1" d="M437.7,207.8c-0.3,1.6-0.5,3.1-0.8,4.7c-0.1,0.7-0.5,1.4-0.6,2.1c-0.2,0.8-0.3,1.7-0.5,2.6
				c-0.3,1.3-0.6,2.6-0.9,3.8c-0.1,0.4-0.1,0.7-0.1,1.1c0,1,0,1.1-1,1.1c-2.4,0-4.7,0-7.1,0.1c0,0,0,0-0.1,0c-1.7-0.1-2.1,0.1-2,2.1
				c0,0.3,0.1,0.7,0.1,1c0,12.8,0,25.6,0,38.4c0,0.8-0.1,0.9-0.9,0.9c-4.5,0-9.1,0-13.6,0c-0.3,0-0.6,0-0.9-0.1
				c-1.2-0.1-1.2-0.1-1.2-1.3c0-12.6,0-25.2,0-37.8c0-0.5,0.2-0.9,0.2-1.4c0-0.6-0.1-1.3-0.3-1.9c0-0.1-0.4-0.2-0.7-0.2
				c-0.4,0-0.7,0.1-1.1,0.2c-2.2,0-4.4,0-6.6,0.1c-0.4,0-0.7-0.1-0.6-0.6c0.1-0.7,0.2-1.5,0.4-2.2c0.2-0.8,0.4-1.5,0.5-2.3
				c0.2-1.2,0.4-2.4,0.6-3.5c0.1-0.7,0.4-1.3,0.5-1.9c0.1-0.5,0.1-1,0.2-1.4c0-0.2,0-0.4,0.1-0.6c0.2-0.7,0.4-1.3,0.6-2
				c0.2-0.8,0.6-1,1.4-0.9c0.5,0.1,0.9,0.1,1.4,0.1c10.5,0,21,0,31.5,0C436.7,207.8,437.2,207.8,437.7,207.8z"/>
		</g>
		<g>
			<path class="st2" d="M38.9,244.1c0-6.2,0-12.3,0-18.5c0-1.5-0.6-2.2-1.8-2.7c-0.4-0.2-0.8-0.4-1.1-0.7c-0.7-0.5-0.9-1.2-0.6-2
				c0.4-1,0.4-2.2,0.7-3.2c0.3-1.1,0.7-2.2,1.1-3.3c0.1-0.2,0.2-0.3,0.2-0.5c0.4-1.6,0.8-3.2,1.2-4.8c0-0.1,0.1-0.2,0.1-0.3
				c0.2-1.2-0.1-1.3,1.6-1.3c9.4,0,18.8,0,28.1,0c1.2,0,2.4,0.1,3.5,0.9c0.1,0.1,0.2,0.1,0.4,0.1c1.3,0.1,2.5,0.8,3.4,1.6
				c1.2,1,2.4,2.2,3.4,3.4c0.6,0.7,0.9,1.6,1.3,2.4c0.1,0.3,0.2,0.6,0.4,0.8c0.6,1,0.7,2.2,0.7,3.3c0,1.7,0,3.5-0.3,5.2
				c-0.2,1.1-0.8,2.1-1.3,3.1c-0.5,0.9-1,1.7-1.6,2.4c-0.9,1-2,1.9-3,2.8c-0.4,0.4-0.9,0.8-1.3,1.2c-0.4,0.4-0.1,1.1,0.6,1.4
				c0.6,0.3,1.2,0.5,1.8,0.9c1.2,0.8,2.3,1.6,3,2.9c0.3,0.5,0.9,0.8,1.3,1.2c0.4,0.5,0.7,0.9,1,1.5c0.4,0.9,0.8,1.8,1.1,2.8
				c0.5,1.8,1,3.6,0.7,5.4c-0.1,0.4-0.2,0.8-0.3,1.2c-0.2,0.7-0.3,1.5-0.6,2.2c-0.8,1.8-1.2,3.7-3,4.9c-0.9,0.7-1.7,1.7-2.5,2.4
				c-1.5,1.4-3.3,2.2-5.2,3c-0.9,0.4-1.9,0.4-2.9,0.4c-9.4,0-18.9,0-28.3,0c-0.2,0-0.5,0-0.7,0c-1,0-1.1,0-1.1-1.1
				C38.9,256.8,38.9,250.5,38.9,244.1z M54.9,225.3c0,1,0,2.1,0,3.1c0,1.2,0.5,1.8,1.8,1.8c1.6,0,3.1,0.1,4.7,0c0.7,0,1.5-0.4,2-0.8
				c0.6-0.5,1.1-1.2,1.5-1.9c0.7-1.2,0.8-2.5,0.3-3.8c-0.4-0.8-1-1.5-1.5-2.3c-0.5-0.8-1.4-1.1-2.2-1.1c-1.6-0.2-3.2,0-4.8,0
				c-1.2,0-1.6,0.5-1.6,1.6C54.9,223,54.9,224.2,54.9,225.3z M55.5,245.1C55.5,245.1,55.5,245.1,55.5,245.1c0,1.3,0,2.6,0,3.9
				c0,0.6,0.2,1,0.8,1c2.1-0.1,4.2,0.3,6.2-0.2c1.3-0.3,2.3-1.2,2.8-2.4c1.1-2.4,0-5.3-2.2-6.6c-0.6-0.3-1.2-0.7-1.8-0.7
				c-1.5-0.1-3,0-4.5,0c-1,0-1.2,0.3-1.2,1.2C55.5,242.6,55.5,243.8,55.5,245.1z"/>
			<path class="st2" d="M128.4,255.4c-1-0.3-1.1-1.4-1.6-2.2c-0.3-0.6-0.5-1.2-0.7-1.9c-0.3-1.2-0.5-2.5-0.9-3.7
				c-0.8-2.4-0.5-4.9-0.6-7.4c0-5,0-10,0-15c0-1.1-0.1-1.3-1.2-1.7c-0.7-0.3-1.4-0.7-2-1c-0.5-0.2-0.6-0.7-0.5-1.2
				c0.5-1.6,0.9-3.2,1.4-4.9c0.4-1.3,0.7-2.6,1.1-4c0.5-1.7,1-3.4,1.5-5c0.2-0.5,0.4-0.8,1-0.7c0.6,0.1,1.2-0.1,1.8-0.1
				c3.8,0,7.6,0,11.5,0c0.3,0,0.5,0,0.8,0.1c1.2,0.3,1.2,0.4,0.9,1.6c-0.1,0.3-0.1,0.5-0.1,0.8c0,11.4,0,22.9,0.1,34.3
				c0,1.2,0.5,2.4,1.1,3.5c1.1,2.2,3.1,2.9,5.4,3.1c1.7,0.2,2.9-0.6,4.2-1.4c1.2-0.7,1.9-1.6,2.2-2.9c0.2-0.9,0.4-1.9,0.4-2.8
				c0.1-2.2,0-4.4,0-6.6c0-6.1,0-12.2,0-18.3c0-0.7,0.2-1.3,0.2-2c0-0.9-0.2-1.7-0.2-2.6c0-1.5-0.1-3,0-4.5c0-0.7,0.2-1.4,0.5-2.1
				c0.1-0.2,0.5-0.3,0.7-0.3c1.5,0,2.9,0,4.4,0c2.9,0,5.8,0,8.7,0c0.3,0,0.5,0,0.8,0.1c0.6,0.1,1,0.4,1,1.2c0,12,0,23.9,0,35.9
				c0,1.1,0.1,2.2-0.5,3.3c-0.1,0.1-0.1,0.2-0.1,0.3c0.1,0.7-0.2,1.3-0.3,2c-0.3,1.8-1.2,3.4-2,5c-0.4,0.7-0.7,1.4-1.2,2
				c-0.6,0.7-1.3,1.4-2,2.1c-0.5,0.5-0.9,1.1-1.4,1.6c-0.3,0.3-0.8,0.6-1.1,0.9c-1.1,0.8-2.2,1.8-3.4,2.4c-1.2,0.6-2.6,0.9-3.9,1.4
				c-0.2,0.1-0.4,0.1-0.6,0.2c-1.7,0.9-3.6,0.9-5.4,0.9c-2,0-3.9,0-5.9-0.2c-0.9-0.1-1.7-0.5-2.6-0.8c-1.1-0.4-2.1-0.8-3.2-1.3
				c-0.2-0.1-0.3-0.2-0.4-0.4c-0.3-0.4-0.6-0.6-1.1-0.5c-0.2,0-0.4,0-0.6-0.1c-0.8-0.6-1.6-1.3-2.3-1.9c-0.5-0.5-1.1-0.9-1.6-1.4
				c-0.8-1-1.5-2-2.2-3.1C128.3,256,128.4,255.7,128.4,255.4z"/>
			<path class="st2" d="M180,244.8c0-6,0-12.1,0-18.1c0-0.4,0.1-0.9,0.2-1.3c0.1-0.5,0-0.9-0.5-1.1c-0.8-0.3-1.7-0.6-2.5-0.8
				c-0.3-0.1-0.7-0.1-0.9-0.3c-0.2-0.1-0.5-0.5-0.4-0.7c0.3-1.4,0.7-2.8,1-4.2c0.6-2.3,0.9-4.6,1.8-6.8c0.4-1,0.4-2.1,0.6-3.1
				c0.1-0.7,0.5-0.9,1.1-1c0.3,0,0.5,0,0.8,0c11.5,0,22.9,0,34.4,0c0.2,0,0.4,0,0.6,0c0.7,0.1,0.7,0.2,0.4,0.8
				c0,0.1-0.1,0.2-0.1,0.3c-0.1,1-0.2,1.9-0.3,2.9c-0.1,0.4-0.2,0.8-0.3,1.2c-0.2,0.9-0.3,1.8-0.5,2.7c-0.2,1-0.2,2.1-0.6,3
				c-0.6,1.2-0.4,2.5-0.8,3.7c-0.1,0.2-0.3,0.4-0.4,0.4c-0.2,0.1-0.5,0-0.8,0c-4.8,0-9.6,0-14.3,0c-1.4,0-1.7,0.3-1.7,1.7
				c0,1.4,0,2.8,0.1,4.1c0,1,0.2,1.2,1.3,1.2c4.9,0,9.9,0,14.8,0c0.8,0,1.6,0.2,2.4,0.3c0.1,0,0.3,0.4,0.2,0.6
				c-0.2,0.8-0.4,1.5-0.6,2.3c-0.1,0.5-0.2,1-0.3,1.6c0,0.1,0,0.3,0,0.4c-0.4,1.6-0.8,3.1-1.2,4.7c0,0.1-0.1,0.2-0.1,0.3
				c-0.3,1.5-0.4,1.5-1.9,1.5c-4.6,0-9.2,0-13.8,0c-1.3,0-1.5,0.2-1.5,1.5c0.1,1.4,0.1,2.8,0.2,4.3c0.1,1.1,0.3,1.2,1.3,1.2
				c4.9,0.1,9.8,0.2,14.7,0.2c0.7,0,1.5-0.1,2.2-0.2c0.6-0.1,0.9,0.1,0.8,0.7c-0.1,0.9-0.2,1.9-0.4,2.8c-0.3,1.6-1.1,3.2-1,4.9
				c0,0.1,0,0.2,0,0.3c-1,2.2-1,4.6-1.6,6.8c-0.1,0.5-0.4,0.7-0.9,0.7c-1.7-0.1-3.3-0.1-5-0.1c-2,0-3.9,0.1-5.9,0.1
				c-3.1,0-6.1-0.1-9.2-0.1c-3.5,0-7.1,0-10.6,0c-0.9,0-0.9,0-0.9-0.9C180,257.1,180,251,180,244.8z"/>
			<path class="st2" d="M102.9,265c-3,0-6,0-9,0c-0.8,0-1.6,0-2.5,0c-0.2,0-0.5-0.3-0.5-0.5c0-1.8,0-3.6,0-5.4
				c0-1.3-0.1-2.6-0.1-3.9c0-2.2,0-4.4,0-6.6c0-0.4,0.1-0.7,0.1-1.1c0-3.1-0.1-6.2-0.1-9.2c0-2,0-4.1,0-6.1c0-2.4,0.1-4.8,0.2-7.2
				c0-0.6-0.5-1.2-1.1-1.5c-0.7-0.4-1.4-0.9-2.1-1.3c-0.1-0.1-0.3-0.3-0.3-0.5c0.1-0.9,0.3-1.7,0.5-2.6c0.1-0.4,0.2-0.9,0.3-1.3
				c0.2-0.7,0.4-1.4,0.6-2.2c0-0.1,0.1-0.3,0.2-0.4c0.3-1.7,0.6-3.3,0.9-5c0.2-0.9,0.3-1.7,0.6-2.6c0.1-0.2,0.3-0.5,0.5-0.6
				c0.4-0.2,0.9-0.3,1.3-0.3c4.3,0,8.7,0,13,0c0.3,0,0.7,0,0.9,0.1c0.2,0.2,0.5,0.5,0.5,0.8c0,6-0.1,12.1-0.1,18.1
				c0,6.5,0,13.1,0,19.6c0,0.5,0.1,1,0.2,1.5c0.1,0.7,0.6,1,1.2,1c1.4,0,2.9-0.1,4.3-0.1c1.8,0,3.7,0.1,5.5,0.1
				c0.6,0,0.8,0.2,0.7,0.8c-0.1,0.3-0.2,0.6-0.2,1c-0.2,0.8-0.3,1.6-0.5,2.4c-0.1,0.5-0.2,0.9-0.3,1.4c-0.9,2.7-1.5,5.5-1.9,8.4
				c-0.1,0.9-0.5,1.8-0.8,2.7c-0.1,0.2-0.4,0.3-0.6,0.3c-1.1,0.1-2.2,0.1-3.3,0.1C108.1,265,105.5,265,102.9,265z"/>
		</g>
	</g>
</g>
</svg>
