<?xml version="1.0" encoding="utf-8"?>
<!-- Generator: Adobe Illustrator 23.0.4, SVG Export Plug-In . SVG Version: 6.00 Build 0)  -->
<svg version="1.1" id="Capa_1" xmlns="http://www.w3.org/2000/svg" xmlns:xlink="http://www.w3.org/1999/xlink" x="0px" y="0px"
	 viewBox="0 0 473 473" style="enable-background:new 0 0 473 473;" xml:space="preserve">
<style type="text/css">
	.st0{fill:#FFFFFF;}
	.st1{fill:#CC4338;}
</style>
<g>
	<path d="M473,358.4V114.6C473,51.3,421.7,0,358.4,0H114.6C51.3,0,0,51.3,0,114.6v243.8C0,421.7,51.3,473,114.6,473h243.8
		C421.7,473,473,421.7,473,358.4z"/>
	<g>
		<g>
			<path class="st0" d="M42.6,206c6.3,0,12.3,0,18.4,0c5.2,0,10.4-0.1,15.6,0.1c1,0,2.2,0.6,3.1,1.2c4.9,3.3,6.1,7.9,5.9,13.8
				c-0.5,12.2-0.2,24.5-0.1,36.7c0,1.7-0.7,2.8-1.7,4.2c-3.3,4.4-7.4,5.7-12.8,5.4c-8.7-0.5-17.3-0.2-26-0.2c-1.6,0-2.2-0.4-2.2-2.1
				c0-19.2-0.2-38.3-0.2-57.5C42.5,207.1,42.5,206.8,42.6,206z M56.6,220.1c0,10.8,0,21.3,0,31.8c0,1.4,0.8,1.5,1.8,1.5
				c3.7,0,7.4-0.1,11.1,0c1.7,0.1,2.1-0.5,2.1-2.2c-0.1-7.8,0-15.6,0-23.4c0-2.5,0-5,0-7.7C66.5,220.1,61.7,220.1,56.6,220.1z"/>
			<path class="st0" d="M206.3,243.9c-4.5,0-8.6,0-13,0c0,7.7,0,15.3,0,23.1c-4.8,0-9.3,0-13.9,0c0-20.3,0-40.5,0-60.9
				c4.6,0,9,0,13.8,0c0,7.8,0,15.5,0,23.4c4.4,0,8.6,0,13,0c0-7.8,0-15.5,0-23.3c4.7,0,9.1,0,13.7,0c0,20.3,0,40.4,0,60.7
				c-4.5,0-8.9,0-13.6,0C206.3,259.4,206.3,251.8,206.3,243.9z"/>
			<path class="st0" d="M279.8,206.2c4.7,0,9.1,0,13.7,0c0,0.8,0.1,1.6,0.1,2.3c0,13.1,0,26.2,0,39.3c0,1.1-0.5,2.5-1.2,3.3
				c-3.9,4.9-7.8,9.7-11.9,14.4c-0.7,0.8-1.9,1.2-2.9,1.4c-6.5,1.3-11.4-1-14.9-6.8c-2-3.3-5-6.1-7.4-9.2c-0.6-0.7-1.1-1.8-1.1-2.7
				c-0.1-13.6,0-27.1,0-40.7c0-0.4,0.1-0.8,0.1-1.3c4.5,0,9,0,13.7,0c0,0.8,0.1,1.7,0.1,2.5c0,10.9,0.1,21.8,0,32.6
				c0,2.4,0.5,4.3,2.2,5.9c1.3,1.2,2.3,2.7,3.7,4.4c1.9-2.4,3.8-4.5,5.5-6.8c0.4-0.5,0.3-1.5,0.3-2.3c0-11.1,0-22.2,0-33.4
				C279.8,208.3,279.8,207.4,279.8,206.2z"/>
			<path class="st0" d="M318.8,219.9c0,3.3,0,6.4,0,9.7c5,0,10,0,15.2,0c0,4.8,0,9.4,0,14.2c-5.1,0-10,0-15.1,0c0,3.1,0,6.1,0,9.3
				c7.2,0,14.4,0,21.6,0c0,4.8,0,9.4,0,14c-0.8,0-1.5,0.1-2.2,0.1c-8.2,0-16.4,0-24.6-0.2c-1,0-2.2-0.6-3.1-1.2
				c-4.8-3.3-6.2-7.8-6-13.7c0.5-12.1,0.2-24.3,0.1-36.4c0-1.9,0.7-3.1,1.8-4.6c3.2-4.3,7.3-5.5,12.5-5.2c7.1,0.4,14.2,0.1,21.5,0.1
				c0,4.7,0,9.2,0,14C333.2,219.9,326.1,219.9,318.8,219.9z"/>
			<path class="st0" d="M130.8,205.8c0,4.3-0.1,8.2,0,12.1c0,1.6-0.6,2-2.1,2c-5.9-0.1-11.8,0-17.7-0.1c-1.8,0-2.3,0.6-2.2,2.3
				c0.1,2.4,0,4.9,0,7.6c5.2,0,10.2,0,15.5,0c0,4.5,0.1,8.7-0.1,13c0,0.4-1.2,1.1-1.8,1.1c-3.5,0.1-7.1,0.1-10.6,0.1
				c-0.9,0-1.7,0-2.8,0c0,3.1,0,6.1,0,9.3c7.3,0,14.4,0,21.7,0c0,4.7,0,9.2,0,13.9c-0.8,0.1-1.5,0.1-2.3,0.1c-8.2,0-16.4,0-24.6-0.2
				c-1.1,0-2.3-0.7-3.3-1.3c-4.8-3.2-5.9-7.6-5.7-13.3c0.5-12.4,0.1-24.9,0.2-37.4c0-1.2,0.7-2.4,1.4-3.5c3.2-4.6,7.6-6.1,13.1-5.7
				C116.5,206.2,123.5,205.8,130.8,205.8z"/>
			<path class="st0" d="M410.8,237c1.9-2.3,3.7-4.3,5.3-6.6c0.5-0.7,0.5-1.8,0.5-2.7c0-7.1,0-14.2,0-21.5c4.7,0,9,0,13.5,0
				c0.1,0.5,0.2,1,0.2,1.5c0.1,8.4,0.1,16.9,0.1,25.3c0,1.1-0.4,2.3-1.1,3.2c-3.3,4.2-6.9,8.2-10.2,12.4c-0.8,1.1-1.4,2.6-1.5,4
				c-0.2,4.6-0.1,9.3-0.1,14.1c-4.6,0-9,0-13.8,0c0-4-0.2-8,0.1-11.9c0.2-3.1-0.7-5.5-2.8-7.8c-3.1-3.4-6-7.1-8.9-10.7
				c-0.6-0.7-1.1-1.8-1.1-2.7c-0.1-8.8,0-17.7,0-26.5c0-0.3,0.1-0.6,0.1-1c4.5,0,9,0,13.8,0c0,1.4,0,2.8,0,4.2
				c0,5.6,0.1,11.2,0,16.8c0,1.9,0.4,3.5,1.7,4.9C408.1,233.5,409.3,235.2,410.8,237z"/>
			<path class="st0" d="M139,206.1c4.8,0,9.2,0,13.9,0c0,15.6,0,31.2,0,47c6.5,0,12.7,0,19,0c0,4.8,0,9.3,0,14.1c-1.2,0-2.4,0-3.5,0
				c-6.8,0-13.6,0.1-20.3-0.1c-1.1,0-2.4-0.6-3.3-1.3c-4.9-3.3-6.1-7.9-5.9-13.7c0.4-14.4,0.1-28.8,0.1-43.3
				C139,208,139,207.1,139,206.1z"/>
			<path class="st0" d="M364.3,266.7c-4.8,0-9.2,0-13.7,0c0-0.8-0.1-1.6-0.1-2.4c0-16.4,0-32.8,0-49.2c0-1.6,0.6-2.7,1.6-3.9
				c3.4-4.5,7.7-6,13.2-5.5c5.2,0.5,10.4,0.1,15.6,0.1c0.8,0,1.7,0,2.6,0c0,4.7,0,9.1,0,13.8c-0.8,0-1.6,0.1-2.4,0.1
				c-4.8,0-9.6,0.1-14.4,0c-2-0.1-2.4,0.6-2.3,2.4c0.1,13.9,0,27.7,0,41.6C364.3,264.6,364.3,265.6,364.3,266.7z"/>
			<path class="st0" d="M230,206.2c4.6,0,9,0,13.6,0c0,20.2,0,40.5,0,60.8c-4.5,0-9,0-13.6,0C230,246.8,230,226.6,230,206.2z"/>
		</g>
		<rect x="42.5" y="253.3" class="st1" width="14.1" height="14.1"/>
		<rect x="416.7" y="206.3" class="st1" width="13.8" height="14.3"/>
	</g>
</g>
</svg>
