<?xml version="1.0" encoding="utf-8"?>
<!-- Generator: Adobe Illustrator 26.3.1, SVG Export Plug-In . SVG Version: 6.00 Build 0)  -->
<svg version="1.1" id="Capa_1" xmlns="http://www.w3.org/2000/svg" xmlns:xlink="http://www.w3.org/1999/xlink" x="0px" y="0px"
	 viewBox="0 0 473 473" style="enable-background:new 0 0 473 473;" xml:space="preserve">
<style type="text/css">
	.st0{fill:#FFFFFF;}
	.st1{fill:#190483;}
	.st2{fill:#F50E00;}
	.st3{fill-rule:evenodd;clip-rule:evenodd;fill:#190483;}
</style>
<g>
	<path class="st0" d="M358.4,0H114.6C51.3,0,0,51.3,0,114.6v243.8c0,63.3,51.3,114.6,114.6,114.6h243.8
		c63.3,0,114.6-51.3,114.6-114.6V114.6C473.1,51.3,421.7,0,358.4,0z"/>
	<g>
		<path class="st1" d="M184.7,233.3c4.7-0.8,9.5-1.5,14.2-2.3c0-0.4,0-0.8,0.1-1.2c-4.1-0.7-8.3-1.4-11.4-1.9
			c3.7-0.6,8.5-1.4,13.3-2.2c0-0.5,0-0.9,0-1.4c-4.1-0.7-8.1-1.4-11-1.9c3.5-0.6,8.3-1.3,13-2.1c0-0.5,0-0.9,0-1.4
			c-4-0.7-8-1.3-12.1-2c0-0.3,0-0.6,0-0.8c12.6-0.4,25.2-0.9,37.8-1.1c5.5-0.1,11.2,0,16.6,1c8.6,1.6,14.8,7.9,14.6,15.2
			c-0.4,20.4-9.6,38.6-33.4,41c-14.6,1.5-29.4,0.6-44.2,0.4c-4.1,0-8.1-1.2-11.6-1.8c4.4-0.7,9.4-1.5,14.4-2.3c0-0.4,0-0.8,0-1.2
			c-4.5-0.7-8.9-1.4-12.8-2c4.5-0.7,9.6-1.5,14.7-2.3c0-0.4,0-0.7,0-1.1c-4.5-0.7-8.9-1.4-12.3-1.9c4-0.6,9.1-1.3,14.2-2.1
			c0-0.4,0-0.9,0-1.3c-4.4-0.6-8.7-1.2-12.4-1.8c4.3-0.7,9.4-1.5,14.5-2.3c0-0.5,0-0.9,0-1.4c-4.3-0.7-8.7-1.3-12.2-1.8
			c4.1-0.6,9-1.4,14-2.2c0-0.4,0-0.7,0-1.1c-4.1-0.7-8.2-1.3-11.7-1.8c4-0.6,8.8-1.4,13.5-2.1c-3.8-2.9-8.1-3.1-12.4-3.2
			c4.9-0.9,9.7-1.8,14.6-2.6C193,233.8,188.8,233.6,184.7,233.3z M237.1,232.4c0-0.4,0-0.7,0-1.1c-1-0.3-2.1-0.8-3.1-0.9
			c-3.6-0.3-7.2-0.4-10.8-0.6c-1.7-0.1-2.4,0.6-3,2.1c-2.8,7.5-5.6,15.1-8.5,22.6c-0.4,1-0.7,2-1.1,2.9c5.1,0,9.9,0,14.8,0
			c0-0.3,0-0.6,0-1c-2.9-0.2-5.7-0.4-8.6-0.6c5.6-0.4,10.9-1.7,16.2-2.9c0-0.4,0-0.8-0.1-1.3c-4-0.5-8-1.1-11.4-1.6
			c4.6-0.7,9.7-1.5,14.8-2.3c0-0.3,0-0.7,0-1c-4.2-0.7-8.4-1.3-12-1.9c4.3-0.7,9.2-1.4,14.1-2.2c0-0.4,0-0.8,0.1-1.2
			c-4.3-0.8-8.5-1.5-11.9-2.1c3.9-0.7,8.6-1.6,13.2-2.5c0-0.4,0-0.7,0-1.1c-5.1-0.8-10.3-1.5-15.4-2.3
			C228.6,233.3,232.8,232.8,237.1,232.4z"/>
		<path class="st1" d="M50.9,229.8c-4.1-0.7-8.2-1.4-11.2-1.9c3.7-0.6,8.5-1.4,13.2-2.2c0-0.4,0-0.9,0-1.3c-4-0.7-8-1.4-10.9-1.9
			c3.6-0.6,8.2-1.3,12.8-2c0-0.5,0-0.9,0.1-1.4c-3.9-0.7-7.8-1.3-12.4-2.1c7.3-0.7,13.9-1.7,20.6-1.8c10.3-0.2,20.6-0.2,30.9,0.4
			c9,0.5,16.2,6.1,17.5,13.6c0.7,3.8,0.2,7.9-0.6,11.8c-1.2,6.2-3.2,12.2-7,17.4c-6.3,8.6-15.1,13.5-25.5,14.1
			c-14.7,0.8-29.5,0.5-44.2,0.4c-4.1,0-8.2-1.2-11.7-1.8c4.4-0.7,9.4-1.5,14.5-2.2c0-0.4,0-0.8,0-1.2c-4.4-0.7-8.9-1.4-12.7-2
			c4.4-0.7,9.5-1.5,14.7-2.3c0-0.3,0-0.7,0-1c-4.4-0.7-8.8-1.4-12.1-2c3.9-0.6,8.9-1.3,13.9-2.1c0-0.4,0-0.8,0-1.3
			c-4.3-0.6-8.5-1.2-13.4-2c5.7-0.2,10.7-0.9,15.6-2.5c0-0.3,0-0.7,0-1c-4.2-0.7-8.5-1.3-12-1.8c4.1-0.6,8.9-1.4,13.7-2.2
			c0-0.4,0-0.7,0.1-1.1c-4-0.7-8-1.3-11.5-1.9c4.1-0.6,8.8-1.4,14.2-2.2c-4.6-2.8-9-3-13.3-3.1c4.9-0.9,9.8-1.8,14.7-2.6
			c0-0.4,0-0.8,0.1-1.2c-4.1-0.7-8.2-1.4-11.8-2c4.2-0.7,9-1.5,13.8-2.3C50.9,230.6,50.9,230.2,50.9,229.8z M62.3,258.1
			c5.5-0.3,10.4-0.5,15.2-0.7c0-0.3,0-0.7,0-1c-2.9-0.2-5.9-0.4-9.2-0.6c5.9-0.9,11.5-1.8,17-2.6c0-0.5,0-0.9,0-1.4
			c-4-0.6-8-1.2-11.4-1.7c4.4-0.7,9.5-1.5,14.6-2.3c0-0.3,0-0.6,0-0.9c-4.1-0.7-8.2-1.3-11.8-1.9c4.2-0.7,9-1.4,13.7-2.2
			c0-0.4,0-0.8,0-1.2c-4.3-0.8-8.6-1.5-11.9-2.1c3.8-0.7,8.6-1.6,13.5-2.5c0-0.3-0.1-0.7-0.1-1c-5.1-0.8-10.2-1.5-15.2-2.3
			c4-0.5,8.2-0.9,13.1-1.5c-1-0.8-1.1-1.1-1.4-1.2c-4.9-0.4-9.7-0.9-14.6-1.2c-0.4,0-1.1,0.7-1.2,1.2
			C69.2,239.9,65.9,248.7,62.3,258.1z"/>
		<path class="st1" d="M342.4,251.1c-3.1,5.2-6.4,9.6-10.7,13.1c-9.4,7.7-20.4,10.3-32.2,9.7c-6.8-0.4-13.6-1.7-20.4-2.5
			c-2.9-0.3-5.9-0.5-8.8-1c3.1-0.2,6.3-0.3,9.4-0.5c0.1-0.4,0.1-0.7,0.2-1.1c-5.5-2.9-11.8-3-17.9-4.2c2.1,0,4.2,0.2,6.2-0.1
			c2.2-0.3,4.3-1.1,6.4-1.7c0-0.3,0.1-0.6,0.1-0.9c-4.9-0.8-9.9-1.6-14.3-2.3c3.9-0.6,8.3-1.2,12.8-1.8c0-0.4,0-0.9,0-1.3
			c-4.8-0.7-9.6-1.5-13.4-2c3.9-0.6,8.9-1.4,13.9-2.2c0-0.4,0-0.8,0-1.2c-4.8-0.8-9.6-1.5-13.4-2.1c4.1-0.6,9.3-1.4,14.5-2.1
			c0-0.3,0-0.6,0-1c-4.6-0.7-9.1-1.4-12.5-2c4.1-0.6,9.3-1.4,15.3-2.2c-4.5-3.2-9.1-2.4-13.3-3.3c5.6,0.2,10.8-1.4,16-2.9
			c0-0.3,0-0.6,0-0.9c-4.3-0.6-8.7-1.3-12.1-1.8c4.7-0.7,10.5-1.6,16.2-2.4c0-0.4,0-0.7,0-1.1c-2.1-0.4-4.1-1-6.2-1.2
			c-2.1-0.2-4.2,0-6.4-0.3c6.6-0.9,13.5-0.7,19.6-3.8c0-0.4-0.1-0.7-0.1-1.1c-4.5-0.2-9.1-0.4-13.6-0.6c8.3-0.7,16.8-0.5,24.5-4.8
			c-4.5,0-9,0-13.5,0c0-0.2,0-0.4,0-0.6c0.2-0.1,0.4-0.2,0.6-0.3c9.7-0.6,19.4-1.3,29.1-1.6c5-0.2,10,0,14.9,0.9
			c11.2,1.9,16.2,9.3,14.6,20.8c-6.6,0-13.2,0-19.8,0c-1.9-7.6-5.7-9.8-13.5-8.3c-5.8,1.1-10.6,4-13.3,9.1
			c-2.3,4.4-4.1,9.1-5.3,13.9c-1.3,5.3,1.3,8.3,6.7,9c7.7,1.1,13.9-1.6,18.5-7.7c1.1-1.4,2.2-1.9,4-1.9
			C330.4,251.2,336.1,251.1,342.4,251.1z"/>
		<path class="st1" d="M182.9,214.9c-1.7,4.9-3.3,9.5-5.1,14.1c-0.2,0.6-1.5,1.2-2.4,1.2c-3.2,0.1-6.5,0-9.7-0.2
			c-1.7-0.1-2.4,0.5-3,2.1c-4.7,12.9-9.5,25.7-14.1,38.5c-0.7,2-1.7,2.7-3.8,2.6c-4.4-0.2-8.7,0-13.1-0.1c-2.5-0.1-5-0.2-7.4-0.6
			c-4.2-0.6-8.3-1.4-11.7-1.9c4.4-0.7,9.7-1.5,15.1-2.4c0-0.3,0-0.7,0-1c-4.7-0.7-9.3-1.5-13-2.1c4.4-0.7,9.7-1.5,15-2.3
			c0-0.3,0-0.6,0.1-0.9c-4.5-0.7-9-1.5-12.8-2.1c4.4-0.6,9.5-1.4,14.6-2.1c0-0.4,0-0.7,0.1-1.1c-4.5-0.7-9-1.4-12.5-1.9
			c4.2-0.7,9.4-1.5,14.6-2.3c0-0.4,0-0.8,0-1.3c-4.5-0.7-8.9-1.4-12.3-2c4-0.6,9.1-1.4,14.1-2.1c0-0.2,0-0.4,0-0.6
			c-2-0.6-4-1.5-6.1-1.8c-2.2-0.3-4.4-0.1-6.6-0.4c4.9-0.8,9.8-1.5,14.7-2.3c0-0.4,0-0.8,0-1.2c-4.2-0.8-8.4-1.5-12.5-2.3
			c2.3-0.2,4.9-0.3,7.4-0.7c2.5-0.5,4.9-1.3,7.3-2c0-0.3,0-0.6,0-0.9c-4.2-0.7-8.4-1.4-11.9-2c3.5-0.5,7.6-1.1,11.8-1.7
			c0-0.1-0.1-0.3-0.1-0.4c-7.8-0.9-15.6-1.8-23.4-2.7c4.3-0.8,8.9-0.6,13.2-3.2c-3.7-2.7-7.7-1.9-11.5-2.5c4.6-0.3,9.2-0.3,13.2-2.6
			c0-0.4,0-0.8,0-1.2c-3.7-0.6-7.4-1.1-11.2-1.7c0-0.1,0-0.2,0-0.2c7.7-0.6,15.4-1.5,23.1-1.6c12.1-0.3,24.3-0.1,36.4-0.1
			C180.5,214.9,181.5,214.9,182.9,214.9z"/>
		<g>
			<path class="st2" d="M200.5,299.3c2.2-4.6,4.1-8.6,6.1-12.5c0.2-0.5,1-0.9,1.5-0.9c3,0,5.9-0.1,8.9,0.2c3.2,0.3,4.3,2.3,3.1,5.3
				c-1.6,4.2-4.8,6.8-9.3,7.4C207.6,299.2,204.4,299.1,200.5,299.3z M205.6,296.4c5.8,0.6,8.3-0.4,10-3.9c0.7-1.4,1.6-2.9-0.4-4.1
				c-1.7-0.9-5.5-0.3-6.2,1C207.9,291.7,206.8,293.9,205.6,296.4z"/>
			<path class="st2" d="M349,289.4c-1.8,3.7-3.4,7.1-5.3,10.4c-1.8,3-8.8,4.5-11.8,2.7c-0.6-0.3-0.9-1.1-1.3-1.7
				c0.1-0.3,0.2-0.5,0.4-0.8c1.4,0.2,2.8,0.1,4.1,0.5c2.6,1,4.2,0.6,5.6-1.6c-1.7,0-3.6,0.2-5.4-0.1c-2.1-0.3-2.9-1.8-2.2-3.9
				c1.4-4.4,6.5-6.9,11-5.6C345.4,289.7,347.1,289.4,349,289.4z M338,296.9c2.8,0.1,5.5-2,5.4-3.9c0-0.6-1.1-1.6-1.9-1.7
				c-2-0.3-4.7,1.9-4.6,3.9C336.9,295.8,337.8,296.5,338,296.9z"/>
			<path class="st2" d="M363,299.2c0-4.8,0-8.9,0-13.2c1.4,0,2.6,0,4.1,0c-0.2,2.9-0.4,5.8-0.6,8.6c0.2,0.1,0.3,0.2,0.5,0.3
				c2.1-2.3,4.3-4.6,6.3-7.1c1.5-1.8,3.1-2.4,5.8-1.7c-4.2,4.3-8.1,8.5-12.3,12.5C366,299.4,364.4,299.1,363,299.2z"/>
			<path class="st2" d="M386.7,290.9c-2.4,0.5-4.8,1-7.5,1.5c1.7-3.3,9-4.9,11.1-2.5c0.4,0.5,0.4,1.7,0.1,2.4c-0.9,2.2-2,4.3-3,6.5
				c-2.8,0.2-5.7,0.5-8.6,0.5c-0.9,0-2.4-0.6-2.5-1.1c-0.2-0.9,0.2-2.5,0.9-2.9c1.7-1,3.7-1.5,5.6-2.1c1.4-0.4,2.8-0.6,4.2-0.9
				C386.9,291.8,386.8,291.4,386.7,290.9z M379.8,295.9c0.1,0.3,0.2,0.7,0.3,1c2.7,0.9,4.1,0.4,5.6-2.6
				C383.5,294.9,381.6,295.4,379.8,295.9z"/>
			<path class="st2" d="M279.3,294.9c0.2,3,2.1,2.3,3.5,2.1c1.5-0.2,2.9-0.7,4.9-1.3c-2.3,3.3-7.7,4.9-10.4,3.1
				c-0.9-0.6-1.7-2.5-1.4-3.6c1.1-4.7,7.7-7.8,12.1-5.7c0.9,0.4,1.6,2.1,1.7,3.2c0.1,1.5-1,2.3-2.8,2.2
				C284.3,294.8,281.9,294.9,279.3,294.9z M280.8,293c1.8,0,3.4,0,5,0C285,290.5,283,290.5,280.8,293z"/>
			<path class="st2" d="M425.5,294.9c0.2,3.1,2.1,2.3,3.5,2c1.5-0.2,2.9-0.7,4.9-1.3c-2.5,3.3-7.4,4.6-10.3,3.3
				c-2-0.8-2.2-2.4-1.6-4.1c1.3-4.4,7.9-7.4,12.1-5.4c0.9,0.4,1.6,2.1,1.7,3.2c0.1,1.6-0.9,2.3-2.7,2.2
				C430.5,294.8,428.1,294.9,425.5,294.9z M426.9,293c1.8,0,3.4,0,5.1,0C430.8,290.5,429.2,290.5,426.9,293z"/>
			<path class="st2" d="M234.7,296.2c-2.4,2.8-7,4-9.9,2.9c-1.9-0.7-2.4-2.2-1.8-4c1.3-4.5,8.1-7.7,12.3-5.5
				c0.9,0.5,1.5,2.2,1.5,3.3c0.1,1.4-0.9,2.2-2.6,2.1c-1.9-0.1-3.9-0.1-5.8,0c-0.6,0-1.2,0.7-1.7,1.1c0.6,0.4,1.3,1.1,1.9,1.1
				c1.5-0.1,3-0.7,4.5-1C233.5,296,234.1,296.2,234.7,296.2z M227.8,293c2,0,3.6,0,5.2,0C232.2,290.5,230.7,290.5,227.8,293z"/>
			<path class="st2" d="M322.5,298.8c1.1-2.4,2.1-4.5,3.2-6.9c-2.4-1.2-4.1-0.6-5.4,1.3c-0.7,1-1.3,2.3-1.7,3.5
				c-0.8,2.2-2.1,3.1-4.8,2.1c1.4-2.9,2.8-5.8,4.2-8.6c0.2-0.4,0.8-0.8,1.3-0.8c2.6-0.2,5.2-0.3,7.8-0.2c2.5,0.1,3,1.2,2,3.5
				c-0.6,1.4-1.5,2.8-2,4.2C326.3,299.1,324.9,299.6,322.5,298.8z"/>
			<path class="st2" d="M419.4,289.6c-1.4,2.9-2.7,5.7-4.1,8.4c-0.3,0.5-1.1,1.1-1.6,1.1c-2.4,0.2-4.8,0.3-7.2,0.2
				c-2.8,0-3.5-1.1-2.4-3.7c0.6-1.3,1.4-2.6,1.9-4c0.8-2.3,2.3-2.9,4.6-2.1c-1,2.3-2,4.6-3.1,7.1c2.8,0.9,4.5,0.2,5.7-1.9
				c0.5-1,1.1-1.9,1.4-3C415.3,289.4,416.9,288.9,419.4,289.6z"/>
			<path class="st2" d="M261.5,299.3c0-3.5,0-6.5,0-9.7c1.1,0,2.3,0,3.8,0c-0.1,2-0.2,4-0.4,6.1c3.5-1.5,4.1-7.3,9.8-6
				c-3.3,3.2-6.2,6.4-9.4,9.2C264.6,299.4,263.1,299.1,261.5,299.3z"/>
			<path class="st2" d="M402.8,286.3c-1.9,3.9-3.6,7.9-5.8,11.6c-0.5,0.9-2.2,1-3.4,1.5c-0.2-0.3-0.3-0.5-0.5-0.8
				c1.9-4,3.7-8,5.9-11.8c0.4-0.8,2.3-0.8,3.4-1.2C402.6,285.8,402.7,286.1,402.8,286.3z"/>
			<path class="st2" d="M238.9,299.5c2.1-4.4,3.9-7.8,5.4-11.4c0.9-2.1,2.2-2.7,4.7-1.9c-2,4.1-3.9,8.3-6.1,12.2
				C242.5,299.1,240.7,299,238.9,299.5z"/>
			<path class="st2" d="M304.5,289.3c-0.7,0.9-1.3,2.2-1.8,2.2c-3.8-0.1-5,2.6-6.2,5.3c-1.1,2.5-1.2,2.5-4.6,1.9
				c1.4-3,2.8-5.8,4.3-8.7c0.2-0.4,0.9-0.7,1.3-0.7C299.6,289.3,301.8,289.3,304.5,289.3z"/>
			<path class="st2" d="M248.9,298.5c1.3-2.7,2.5-5.5,4.1-8.1c0.6-0.9,2.3-1,3.5-1.5c0.1,0.2,0.3,0.4,0.4,0.7
				c-1.4,2.8-2.6,5.7-4.2,8.3c-0.5,0.8-2.1,1-3.3,1.5C249.3,299.2,249.1,298.8,248.9,298.5z"/>
			<path class="st2" d="M304.4,298.7c1.4-2.8,2.6-5.7,4.2-8.3c0.5-0.8,2.3-0.9,3.4-1.3c0.1,0.2,0.3,0.4,0.4,0.6
				c-1.4,2.9-2.6,5.8-4.3,8.6c-0.5,0.8-2.1,0.9-3.2,1.2C304.8,299.2,304.6,298.9,304.4,298.7z"/>
		</g>
		<path class="st2" d="M309.9,288c0.2-2.7,2.1-2.2,3.7-2.1C313.5,288.3,313.5,288.3,309.9,288z"/>
		<path class="st2" d="M254,287.1c1.3-0.5,2.7-1.1,4.4-1.7c-0.2,3.6-2.3,2.7-3.8,2.8C254.3,287.8,254.2,287.5,254,287.1z"/>
		<g>
			<path class="st3" d="M420.7,173c-1.4,4.4-0.7,6.7,1.8,9.6c-2.5,1.6-1,2.8-0.4,5.9c-1.2,1.5-3.7,1.8-5.9,2.2
				c6.6,4.2,7.8,13.9,10.5,21.9c4.4-2.4,10.3-2.1,14.6-4.6c1.9-1.1,3.9-4.7,7.8-2.2c0.9,1.4,1.9,3.8,0.9,5.9
				c-1.3,1.8-3.5,0.4-5.5,0.9c-6.1,1.5-13.5,8.6-18.7,10.5c-7.3,2.7-8.1-6.6-12.4-11.5c-0.9,4.7-5.2,8.4-4.6,12.8
				c0.8,5.8,12.1,6.5,15.5,11.9c5.4,8.2,0.3,18,3.2,29.2c0.7,1.7-2,0.1-1.3,1.8c2.7,2.6,6.3,4.1,10.5,5c-0.1,7.4-11.6,0.1-17.4,3.2
				c-0.4-0.6-1.2-0.9-1.8-1.3c-0.2-2.4,0.6-3.7,0.9-5.5c-6.1-3.4-1.6-14.8-5-21.5c-2.6-5-10.3-2.9-14.1-6.8
				c-9.1,11.2-20.5,20.2-34.8,26.5c-1.7,0.2-1.8-1.1-3.2-1.3c-2.5,1.9-5.6,2.6-9.6,5c-3.7,2.2-7.1,8.8-10.5,5c-1-4.4,2.6-5,4.6-7.8
				c4-5.3,2.5-9.9,10.5-10c0.8-3,3.9-3.7,6.8-4.6c1.4-0.9-1.5-2.2-0.4-2.8c1-0.4,2.2-0.8,3.7-0.9c1.4-0.8-2.5-1.2-0.9-2.2
				c1.6-0.2,3-0.7,5-0.4c1.5-1.2-2.5-0.8-2.2-2.2c1.3-0.6,3.5-0.5,5.5-0.4c-0.1-1.6-1.5-1.8-3.2-1.8c1-1.4,3.4-1.5,5.5-1.8
				c-0.4-1.1-2.5-0.6-3.2-1.3c0.9-1.4,2.8-1.8,5-1.8c-0.3-1.1-1.7-1-2.8-1.3c0.7-1.4,2.9-1.4,5-1.3c0.4-1.6-1.8-0.6-2.8-0.9
				c-0.3-1.2,0.9-0.9,0.9-1.8c-6.7-3.4-15.4-4.6-16.9-13.3c6.4,3.4,16.3,9.9,26.1,10.9c11,1.1,18.3-4.6,16.5-14.6
				c-0.9-5-5.8-6.1-11.5-7.3c-0.2-1.1,2,0.2,1.3-1.3c-0.9-1.4-5.2,0.7-5.5-1.3c0.2-1.9,3.8-0.4,5.5-0.9c-0.7-3.3-5.8,0.8-6.4-2.2
				c1.1-1.3,5.3,0.4,6.4-0.9c-0.6-2.6-7.5,1.1-6.8-2.8c2.1-0.3,5.4,0.6,6.8-0.4c-5.4-2.4-12.5-0.3-19.6-0.9c0.8-3.1,5.6-1.8,9.1-1.8
				c3.8,0,8,0.4,10.5-0.4c-4.3-2.1-12.5-0.3-18.3-0.9c4.6-7.6,20.9-3.5,30.2-6.4c-1.5-4.1-4.6-6.4-3.7-10.9
				C403.4,169.2,416.5,167.6,420.7,173z"/>
			<path class="st3" d="M382.7,198.1c-0.4,3.4-6.4,1.2-9.6,1.8c0-0.4,0-0.9,0-1.3C375.6,197.6,379.7,198.3,382.7,198.1z"/>
			<path class="st3" d="M373.1,201.8c8.6-1.8,9.1,2.5,14.1,5.5c4,2.4,13.2,3.3,14.6,6.8c2.8,6.7-3.3,13.5-9.1,14.1
				c-5.6,0.6-12-1.3-17.8-3.7c-4.4-1.7-12.2-4.8-12.8-8.2C360.9,209,369.5,205.5,373.1,201.8z M367.2,215.9c2,0.3,3.1,1.4,5.5,1.3
				c2.2-2.5,4-5.4,5.5-8.7C373.1,201.8,369.5,211.7,367.2,215.9z M379.6,209c-0.9,1.7,0.4,1,0.9,2.2c-1.6,2.5-3.6,4.7-4.6,7.8
				c1.1-0.1,1.4,0.7,2.2,0.9c2.1-3.5,3.5-8.2,7.3-8.7C384.9,209.3,381.5,208.2,379.6,209z M380.9,220.9c1.6,0.8,3.3,1.6,5.5,1.8
				c2.1-2.8,4.5-5.3,5.5-9.1c-1-1.5-3.3-1.8-5-2.8C385.3,214.7,382.8,217.5,380.9,220.9z M389.2,223.7c2,3.1,6.5,1.3,7.3-1.8
				c-1-0.1-1.8-0.5-2.8-0.9c-0.3,1.1-0.4,2.4-1.8,2.2c1.2-2.7,2.2-5.3,4.6-6.8c0.1,1.6-1.3,1.6-1.3,3.2c1.4-0.3,1.3,0.8,2.8,0.4
				c0.4-1.3,1.4-1.8,1.3-3.7C394.6,211.1,389.8,219.1,389.2,223.7z"/>
			<path class="st3" d="M374.6,208.1c1.6,1.6-2.4,4.8-3.2,6.8C370.7,212.8,374.1,210.7,374.6,208.1z"/>
			<path class="st3" d="M388.3,213.6c1.7,1.5-2.2,4.9-3.2,6.8C384.4,218.2,387.8,216.1,388.3,213.6z"/>
		</g>
	</g>
	<path class="st1" d="M462.9,67.4C444.9,27.7,404.9,0,358.4,0H114.6C68.1,0,28.1,27.7,10.1,67.4H462.9z"/>
	<path class="st2" d="M10.1,405.6c18,39.8,58,67.5,104.5,67.5h243.8c46.5,0,86.5-27.7,104.5-67.5H10.1z"/>
</g>
</svg>
