<?xml version="1.0" encoding="utf-8"?>
<!-- Generator: Adobe Illustrator 23.0.4, SVG Export Plug-In . SVG Version: 6.00 Build 0)  -->
<svg version="1.1" id="Capa_1" xmlns="http://www.w3.org/2000/svg" xmlns:xlink="http://www.w3.org/1999/xlink" x="0px" y="0px"
	 viewBox="0 0 473.1 473.1" style="enable-background:new 0 0 473.1 473.1;" xml:space="preserve">
<style type="text/css">
	.st0{fill:#25257B;}
	.st1{fill-rule:evenodd;clip-rule:evenodd;fill:#C1171C;}
	.st2{fill-rule:evenodd;clip-rule:evenodd;fill:#FFFFFF;}
</style>
<g>
	<path class="st0" d="M358.4,0H114.6C51.3,0,0,51.3,0,114.6v243.8C0,421.7,51.3,473,114.6,473h243.8c63.3,0,114.6-51.3,114.6-114.6
		V114.6C473.1,51.3,421.7,0,358.4,0z"/>
	<g>
		<path class="st1" d="M146.1,160H202v19.3h-13.4v-4.8h-24.2v17.1h24.2v14.6h-24.2v16.2h24.2v-4.8H202v19h-51v-62h-4.9
			C146.1,170.5,146.3,164.9,146.1,160z M258,181.8v12.1h-14.9v-4.4c-38.3-1.4-17.6,52.8,10,27.5c2.9,4,4.6,6.7,8.1,12.6
			c-25.1,19.2-53.9,2.4-54.3-22.3C206.5,183.6,234.7,166.7,258,181.8L258,181.8z M410.8,187.9v48.6h-13.5v-36.7
			c0-15.7-14.5-7.8-14.5,0.4v36.4h-13.3v-36.3c0-16.6-14.8-8.2-14.8,0.3v36.1H336v-13.9h4.6v-31.1H336V177h18.9v3.3
			c11.5-6.4,19.8-4.6,25.3,2.1C389.7,173.1,409.5,173.4,410.8,187.9z"/>
		<path class="st2" d="M185.1,313.1h-17v-13.3h3.8v-42.9h-3.7v-13.1h16.9v2.3c4.1-1.9,12.9-5.4,21.6-1.2
			c22.3,10.9,13.3,54.9-21.5,53C185.1,302.9,185.1,308.3,185.1,313.1L185.1,313.1z M185.1,284.5c18.5,1.2,23.9-15.2,18.2-24.2
			c-4.8-7.7-18.2-1.6-18.2,4.9C185.1,271.5,184.9,277.6,185.1,284.5z"/>
		<path class="st2" d="M262.8,243.7c-2.3,6.3-2.3,6.3-4.9,12.2c-6.7-0.4-9.4,0.3-11.9,1.2c-2,0.7-6.1,2.4-6.1,10.2v30.1h-16.8v-12.3
			h4.5v-28.6h-4.5v-12.7h16.6v3.3C246.4,243.5,253.3,241.5,262.8,243.7z M317.1,276.6h-37.8c6.7,13.4,20.8,11.1,27.4,3.3
			c4.1,6,3.9,5.5,7.8,11.5c-26.5,19-55.3-2-48.6-28.2C273.9,232.4,320.6,235.6,317.1,276.6L317.1,276.6z M279.4,264.9h25.5
			C300.9,251.7,283.6,251.7,279.4,264.9z M362.5,248.8v10.5h-12.4v-3.5c-2-2.2-11.6-2.2-11.9,1.4c-0.5,6.7,31.3,9.8,25.5,31.6
			c-3.7,13.8-29.9,12-41,2.9c3.7-5.5,3.7-5.5,7-10.3c6.2,2.8,17.1,8.5,19.5,4c5-9.1-21.5-10.2-24.3-22
			C319.6,242.3,347.2,238,362.5,248.8L362.5,248.8z"/>
		<path class="st1" d="M298.3,175.6c-17.4,0-31.5,14.1-31.5,31.5s14.1,31.5,31.5,31.5s31.5-14.1,31.5-31.5
			C329.9,189.7,315.8,175.6,298.3,175.6z M298.3,224.1c-9.4,0-17-7.7-17-17c0-9.4,7.7-17,17-17s17,7.7,17,17
			C315.4,216.6,307.8,224.1,298.3,224.1z"/>
		<path class="st2" d="M61.9,228.9h50.4v17.5h-12V242H78.4v15.4h21.8v13.2H78.4v14.6h21.8v-4.4h12v17.6H66.4V242h-4.5
			C61.9,238.3,62.1,233.3,61.9,228.9L61.9,228.9z"/>
		<path class="st1" d="M118.1,243.7v12.8h4.4l27.1,41.8h11.1v-12.7h-3.4L129,243.7"/>
		<path class="st2" d="M118.1,298.4v-12.8h4.4l27.1-41.8h11.1v12.7h-3.4L129,298.4"/>
		<path class="st2" d="M139.5,282.8l7.9-11.7l-7.9-11.8l-7.7,11.8L139.5,282.8z M409.2,248.8v10.5h-12.4v-3.5
			c-2-2.2-11.6-2.2-11.9,1.4c-0.5,6.7,31.3,9.8,25.5,31.6c-3.7,13.8-29.9,12-41,2.9c3.7-5.5,3.7-5.5,7-10.3c6.2,2.8,17.1,8.5,19.5,4
			c5-9.1-21.5-10.2-24.3-22C366.3,242.3,393.9,238,409.2,248.8L409.2,248.8z"/>
	</g>
</g>
</svg>
