<?xml version="1.0" encoding="utf-8"?>
<!-- Generator: Adobe Illustrator 23.0.4, SVG Export Plug-In . SVG Version: 6.00 Build 0)  -->
<svg version="1.1" id="Capa_1" xmlns="http://www.w3.org/2000/svg" xmlns:xlink="http://www.w3.org/1999/xlink" x="0px" y="0px"
	 viewBox="0 0 473 473" style="enable-background:new 0 0 473 473;" xml:space="preserve">
<style type="text/css">
	.st0{fill:#1C293D;}
	.st1{fill:#FFFFFF;}
	.st2{fill:#CB6932;}
</style>
<g>
	<path class="st0" d="M473,358.4V114.6C473,51.3,421.7,0,358.4,0H114.6C51.3,0,0,51.3,0,114.6v243.8C0,421.7,51.3,473,114.6,473
		h243.8C421.7,473,473,421.7,473,358.4z"/>
	<g>
		<g>
			<path class="st1" d="M68.9,199.1c4-7.1,10.2-9,18.1-8.8c13.7,0.4,27.4,0.1,41.1,0.1c10.6,0,14.8,4.4,14.8,15
				c0,5.1,0.1,10.3,0,15.4c-0.2,12.1-7.7,20.1-19.9,20.5c-10.8,0.3-21.7,0.3-32.5,0.1c-4.5-0.1-6.4,1.3-5.8,5.9
				c0.2,1.5,0.2,3.1,0,4.6c-0.4,4.7,1.7,6.5,6.3,6.4c14.8-0.1,29.7,0,44.5,0c7.4,0,7.4,0,7.4,7.5c0,2.2,0,4.5,0,7.2
				c-2.5,0.1-4.5,0.3-6.6,0.3c-16.4,0-32.7-0.3-49.1,0.2c-8.2,0.3-14.4-1.8-18.4-9.2C68.9,242.5,68.9,220.8,68.9,199.1z
				 M104.2,225.8c3.4,0,6.9,0,10.3,0c11.2,0,13.1-2.2,13-13.5c0-4.5-1.8-6.2-6.1-6.1c-7.8,0.1-15.6,0-23.4,0
				c-13.8,0-13.7,0-13.3,13.8c0.1,4,1.4,6,5.7,5.8C95,225.6,99.6,225.8,104.2,225.8z"/>
			<path class="st1" d="M274.3,222.3c2.5-16,2.1-16.5-12.6-16.5c-13.1,0-26.3-0.1-39.4,0.1c-4,0.1-5.6-1.2-5.3-5.2
				c0.2-1.7,0.2-3.4,0-5.1c-0.4-4.1,1.5-5.2,5.4-5.2c17.9,0.1,35.8,0,53.7,0.1c9.6,0.1,14.4,4.9,14.4,14.4c0.1,18.5,0.1,36.9,0,55.4
				c0,8.7-4.3,12.9-13,13c-16,0.1-32,0.1-48,0c-7.4,0-11.9-4-12.5-11.3c-0.5-6.8-0.6-13.7,0-20.5c1.1-12.2,9-18.9,22.1-19.1
				C250.8,222.2,262.4,222.3,274.3,222.3z M253.8,257.7c2.7,0,5.3,0,8,0c14.9-0.2,13,2.1,13.3-13.5c0.1-4.9-2-6.3-6.5-6.2
				c-7.6,0.2-15.2,0-22.8,0c-11.1,0-14.1,3.4-13.2,14.6c0.3,3.5,1.6,5.2,5.3,5.1C243.1,257.6,248.5,257.7,253.8,257.7z"/>
			<path class="st1" d="M149.5,163c1.5-0.2,2.8-0.5,4.1-0.5c3.4-0.1,6.8,0,11.2,0c0,2.9,0,5.3,0,7.7c0,13.7-0.1,27.4,0.1,41.1
				c0,2,1,5.3,2.4,5.9c3,1.1,6.2,0.7,8.2-2.9c3.6-6.3,7.9-12.1,11.4-18.4c2.4-4.2,5.3-6,10.1-5.4c3.5,0.4,7.1,0.1,12,0.1
				c-5.5,8.7-10,16.8-15.5,24.2c-4.4,5.9-4.2,10.5-0.4,16.7c8.2,13.2,15.3,27.1,23.6,41.8c-6.2,0-11.4,0.3-16.5-0.2
				c-1.3-0.1-2.8-2.3-3.6-3.9c-6.4-11.2-12.7-22.6-19-33.8c-1.8-3.2-8.4-5.3-11.3-3.1c-1.1,0.8-1.5,3.2-1.5,4.9
				c-0.1,11.8-0.1,23.5-0.1,35.7c-5.3,0-10.1,0-15.3,0C149.5,236.2,149.5,199.7,149.5,163z"/>
			<path class="st1" d="M344.8,205.9c0-5.6,0-10.3,0-15.5c7.1,0,13.9,0,21.5,0c0-9.3,0-18.1,0-27.3c5.5,0,10.1,0,15.8,0
				c0,7,0.3,14-0.1,20.9c-0.3,5.1,1.5,6.7,6.5,6.3c5.1-0.4,10.2-0.1,15.7-0.1c0,5.2,0,9.9,0,15.3c-2.6,0.1-5.4,0.3-8.1,0.3
				c-13.9,0-13.9,0-13.9,14.2c0,15.4,0,30.8,0,46.2c0,2,0,4.1,0,6.5c-5.3,0-10,0-15.3,0c-0.1-2-0.3-4-0.3-6c0-17.5,0-35,0-52.5
				c0-9.2,1.2-8.4-8.7-8.4C353.6,205.8,349.4,205.9,344.8,205.9z"/>
			<path class="st1" d="M312.9,272.9c-5.1,0-9.8,0-15,0c-0.1-1.9-0.4-3.7-0.4-5.5c0-20.7-0.1-41.4,0-62.1c0-9.9,4.8-14.7,14.6-14.8
				c7.6-0.1,15.2,0.2,22.8-0.1c4.1-0.1,5.2,1.5,5.2,5.3c0.1,10.5,0.3,10.5-10.4,10.5c-3.6,0-7.2,0.1-10.8,0c-4.3-0.2-6,1.6-6,6.1
				c0.2,18.8,0.1,37.6,0.1,56.4C313.1,269.9,313,271,312.9,272.9z"/>
		</g>
		<path class="st2" d="M216.9,278.2v13.7h7.7c2.5-4.9,7.6-8.4,13.6-8.4s11,3.4,13.6,8.4h12.1c2.5-4.9,7.6-8.4,13.6-8.4
			c5.9,0,11,3.4,13.6,8.3c13.2-0.2,21.4-13.7,21.4-13.7H216.9z"/>
		<g>
			<path class="st1" d="M238.1,287c-6.5,0-11.8,5.3-11.8,11.8c0,6.5,5.3,11.8,11.8,11.8c6.5,0,11.8-5.3,11.8-11.8
				C249.9,292.2,244.6,287,238.1,287z M238.1,304.5c-3.2,0-5.7-2.6-5.7-5.7s2.6-5.7,5.7-5.7c3.2,0,5.7,2.6,5.7,5.7
				S241.2,304.5,238.1,304.5z"/>
			<path class="st1" d="M277.3,287c-6.5,0-11.8,5.3-11.8,11.8c0,6.5,5.3,11.8,11.8,11.8c6.5,0,11.8-5.3,11.8-11.8
				C289.1,292.2,283.8,287,277.3,287z M277.3,304.5c-3.2,0-5.7-2.6-5.7-5.7s2.6-5.7,5.7-5.7s5.7,2.6,5.7,5.7
				S280.4,304.5,277.3,304.5z"/>
		</g>
		<g>
			<path class="st1" d="M316.2,278.2c0,0-2.2,3.7-4,5l68-5H316.2z"/>
			<path class="st1" d="M308.3,287.6c0,0-3.1,2.7-5,3.4l59.2-3.4H308.3z"/>
		</g>
	</g>
</g>
</svg>
