<?xml version="1.0" encoding="utf-8"?>
<!-- Generator: Adobe Illustrator 23.0.4, SVG Export Plug-In . SVG Version: 6.00 Build 0)  -->
<svg version="1.1" id="Capa_1" xmlns="http://www.w3.org/2000/svg" xmlns:xlink="http://www.w3.org/1999/xlink" x="0px" y="0px"
	 viewBox="0 0 473 473" style="enable-background:new 0 0 473 473;" xml:space="preserve">
<style type="text/css">
	.st0{fill:#EA8D00;}
	.st1{fill:#121214;}
	.st2{fill:#FFFFFF;}
</style>
<g>
	<g id="United_States_Postal_Service_5_">
		<path class="st0" d="M358.4,0H114.6C51.3,0,0,51.3,0,114.6v243.8C0,421.7,51.3,473,114.6,473h243.8c63.3,0,114.6-51.3,114.6-114.6
			V114.6C473,51.3,421.7,0,358.4,0z"/>
	</g>
	<g>
		<g>
			<path class="st1" d="M381.1,299.9c-9.4,0-17.8,0-26.3,0c-11.2,0-22.4-0.5-33.5,0.2c-6.4,0.4-8.7-2.3-10.5-7.8
				c-4.3-13-9.1-25.9-14.2-40.2c-6.5,7.9-12.3,14.9-18,21.9c-5.9,7.3-11.7,14.8-17.8,22c-1.4,1.7-3.7,3.7-5.7,3.7
				c-19.9,0.3-39.8,0.2-61.3,0.2c3.8-4.4,6.7-7.8,9.6-11.1c22.4-25,44.6-50,67.2-74.8c3.5-3.8,3.5-6.7,1.3-11
				c-11.7-23.5-23.2-47.2-34.7-70.8c-0.7-1.5-1.4-3.1-2.6-5.6c7.6,0,14.3,0,21,0c12.9,0,25.9,0.2,38.8-0.1c4.9-0.1,6.8,1.7,8.3,6.1
				c4.2,13.1,8.9,25.9,13.7,39.9c1.8-1.9,3-3,4-4.3c9.6-12.5,19.1-25.1,28.8-37.5c1.4-1.8,4-3.8,6.1-3.8c18.6-0.3,37.3-0.1,55.9-0.1
				c0.6,0,1.1,0.4,2.4,0.8c-10,11.2-19.8,22-29.5,32.9c-13.5,15-26.9,30-40.6,44.8c-3.1,3.3-3,5.9-1.2,9.8
				c12.1,25.8,23.9,51.7,35.7,77.6C379,294.6,379.8,296.7,381.1,299.9z"/>
			<path class="st1" d="M59.5,299.9c23.9-26,46.4-50.5,68.9-74.9c6.5-7.1,12.8-14.4,19.7-21.2c3.9-3.9,4.3-7.5,1.9-12.3
				c-9.5-19.2-18.8-38.6-28.2-57.9c-0.9-1.9-1.8-3.9-3.2-7.1c9.8,0,18.9-0.1,27.9,0.1c1.1,0,2.6,1.5,3.2,2.7
				c11.5,22.7,22.9,45.4,34.1,68.2c0.8,1.5,0,4.8-1.2,6.2c-26.9,30.9-53.8,61.7-80.9,92.5c-1.5,1.7-3.8,3.5-5.8,3.6
				C84.3,300,72.8,299.9,59.5,299.9z"/>
			<path class="st1" d="M155.8,126.4c9.7,0,18.2-0.2,26.7,0.2c1.7,0.1,4,1.8,4.8,3.4c12.1,23.8,24.1,47.7,35.8,71.7
				c0.8,1.7,0,5.2-1.3,6.7c-23.5,27.1-47.6,53.8-70.6,81.3c-6.8,8.2-13.8,11.4-24,10.4c-7.3-0.7-14.7-0.1-24-0.1
				c10.5-11.5,19.6-21.6,28.9-31.6c18.8-20.5,37.6-40.9,56.6-61.3c3.8-4.1,2.5-7.9,0.5-12c-9.7-19.9-19.4-39.7-29.1-59.6
				C158.8,132.8,157.6,130.3,155.8,126.4z"/>
			<path class="st1" d="M148.2,299.8c15.4-16.8,29.4-32.1,43.4-47.4c13.2-14.3,26.4-28.7,39.7-42.9c3.1-3.3,2.9-6.2,1.1-10
				c-11-22.4-21.9-44.8-32.8-67.3c-0.8-1.5-1.4-3.1-2.7-5.8c9.8,0,18.9-0.2,27.9,0.2c1.3,0.1,3,2.3,3.8,3.9
				c12.3,24.4,24.6,48.9,36.6,73.4c0.9,1.9,0.4,5.7-1,7.3c-24.9,28.8-50.1,57.4-75.2,86c-1.1,1.2-2.9,2.5-4.3,2.5
				C173.2,299.9,161.6,299.8,148.2,299.8z"/>
		</g>
		<g>
			<g>
				<path class="st2" d="M131.3,344.9c-1.6,0-3.1,0-4.5,0c-1.9,0-3.9-0.1-5.8,0c-1.1,0.1-1.5-0.4-1.8-1.3c-0.7-2.3-1.6-4.5-2.4-6.9
					c-1.1,1.4-2.1,2.6-3.1,3.8c-1,1.3-2,2.6-3.1,3.8c-0.2,0.3-0.6,0.6-1,0.6c-3.4,0-6.9,0-10.6,0c0.7-0.8,1.2-1.4,1.7-1.9
					c3.9-4.3,7.7-8.6,11.6-12.9c0.6-0.7,0.6-1.2,0.2-1.9c-2-4.1-4-8.2-6-12.2c-0.1-0.3-0.2-0.5-0.4-1c1.3,0,2.5,0,3.6,0
					c2.2,0,4.5,0,6.7,0c0.8,0,1.2,0.3,1.4,1.1c0.7,2.3,1.5,4.5,2.4,6.9c0.3-0.3,0.5-0.5,0.7-0.7c1.7-2.2,3.3-4.3,5-6.5
					c0.2-0.3,0.7-0.7,1.1-0.7c3.2,0,6.4,0,9.7,0c0.1,0,0.2,0.1,0.4,0.1c-1.7,1.9-3.4,3.8-5.1,5.7c-2.3,2.6-4.7,5.2-7,7.8
					c-0.5,0.6-0.5,1-0.2,1.7c2.1,4.5,4.1,8.9,6.2,13.4C131,344,131.1,344.4,131.3,344.9z"/>
				<path class="st2" d="M69.8,344.9c4.1-4.5,8-8.7,11.9-13c1.1-1.2,2.2-2.5,3.4-3.7c0.7-0.7,0.7-1.3,0.3-2.1
					c-1.6-3.3-3.3-6.7-4.9-10c-0.2-0.3-0.3-0.7-0.6-1.2c1.7,0,3.3,0,4.8,0c0.2,0,0.5,0.3,0.6,0.5c2,3.9,4,7.8,5.9,11.8
					c0.1,0.3,0,0.8-0.2,1.1c-4.6,5.3-9.3,10.7-14,16c-0.3,0.3-0.7,0.6-1,0.6C74.1,345,72.1,344.9,69.8,344.9z"/>
				<path class="st2" d="M88.4,315c1.7,0,3.1,0,4.6,0c0.3,0,0.7,0.3,0.8,0.6c2.1,4.1,4.2,8.2,6.2,12.4c0.1,0.3,0,0.9-0.2,1.2
					c-4.1,4.7-8.2,9.3-12.2,14.1c-1.2,1.4-2.4,2-4.2,1.8c-1.3-0.1-2.5,0-4.2,0c1.8-2,3.4-3.7,5-5.5c3.3-3.5,6.5-7.1,9.8-10.6
					c0.7-0.7,0.4-1.4,0.1-2.1c-1.7-3.4-3.4-6.9-5-10.3C88.9,316.1,88.7,315.6,88.4,315z"/>
				<path class="st2" d="M89.1,344.9c2.7-2.9,5.1-5.5,7.5-8.2c2.3-2.5,4.6-5,6.9-7.4c0.5-0.6,0.5-1.1,0.2-1.7
					c-1.9-3.9-3.8-7.7-5.7-11.6c-0.1-0.3-0.2-0.5-0.5-1c1.7,0,3.3,0,4.8,0c0.2,0,0.5,0.4,0.7,0.7c2.1,4.2,4.3,8.4,6.3,12.7
					c0.2,0.3,0.1,1-0.2,1.3c-4.3,5-8.7,9.9-13,14.9c-0.2,0.2-0.5,0.4-0.7,0.4C93.4,344.9,91.4,344.9,89.1,344.9z"/>
			</g>
			<g>
				<path class="st2" d="M289.3,345.3c2.3-10.5,4.4-20.3,6.5-30.3c7,0,13.7-0.3,20.3,0.2c1.8,0.1,4.4,1.3,4.8,4.1
					c0.4,2.6,0.5,5.1-2,6.9c-1.5,1.1-2.2,2.1-0.8,4.2c3.7,5.3-0.3,13.4-7.2,14.3c-5.2,0.7-10.5,0.5-15.7,0.6
					C293.5,345.3,291.7,345.3,289.3,345.3z M303.8,338.5c1.1-0.1,2.2-0.1,3.3-0.5c1.8-0.5,3.5-1.1,3.4-3.5c-0.1-2.5-2.1-1.9-3.5-2.1
					c-1.1-0.2-2.2,0-3.2,0c-2.9,0-3.6,0.8-3.5,4.3C300.4,339.2,302.4,338.2,303.8,338.5z M302.8,326.7c2.3,0,4.4,0.3,6.3-0.1
					c1-0.2,1.7-1.7,2.5-2.6c-0.9-0.8-1.8-2-2.8-2.2C305.3,321,303.7,322.4,302.8,326.7z"/>
				<path class="st2" d="M385,314.6c-0.5,3-0.9,5.5-1.4,8.4c-2.8,0-5.5,0-8.2,0c-1.9,0-3.9,0-5.8,0c-2.9,0-3.1,0.2-2.8,3.5
					c4.6,0,9.3,0,14.4,0c-0.5,2.4-0.8,4.5-1.3,6.5c-0.1,0.4-1.3,0.6-1.9,0.6c-3.5,0.1-7,0-10.5,0c-3.3,0-3.5,0.3-3,4
					c5.3,0,10.7,0,16.4,0c-0.4,2.4-0.5,4.5-1.1,6.4c-0.2,0.7-1.6,1.4-2.5,1.5c-7.6,0.1-15.2,0.1-22.9,0.1c-1.1,0-1.7-0.2-1.4-1.6
					c1.6-7.3,3-14.7,4.6-22c0.4-2,1-4.1,1.7-6c0.2-0.6,1-1.3,1.5-1.3C368.5,314.5,376.4,314.6,385,314.6z"/>
				<path class="st2" d="M193.5,345.2c-2.9,0-5.4,0-7.9,0c-0.3,0-0.6-0.1-1-0.2c0.1-2.2,0.3-4.3,0.3-6.5c0-2.6-1-3.6-3.6-3.8
					c-0.4,0-0.8,0-1.3,0c-1.1,0-2.2,0-3.5,0c-1,3.4-1.9,6.8-2.9,10.4c-3,0-6.1,0-9.1,0c0.4-2.1,0.8-4.2,1.3-6.3
					c0.6-2.5,1.2-4.9,1.7-7.4c0.6-3,1.2-6,1.8-9c0.4-2,0.6-4.1,1.1-6.1c0.2-0.6,1.2-1.3,1.9-1.3c6.6-0.1,13.2-0.2,19.8,0.1
					c3.9,0.1,6.5,4.8,5.1,8.6c-0.6,1.6-0.8,3.4-1.7,4.8c-0.9,1.3-2.4,2-3.8,3.1C196.7,335.5,193.2,340.4,193.5,345.2z M177.7,328.5
					c1.9,0,3.2-0.2,4.5,0c1.9,0.3,3.6-0.4,4.7-1.7c0.6-0.7,0.6-2.1,0.5-3.2c0-0.4-1-1-1.6-1c-2.2-0.1-4.5,0-6.7,0
					C178.6,324.5,178.2,326.3,177.7,328.5z"/>
				<path class="st2" d="M335.7,326.5c3.9,0,7.7,0.1,11.5,0c2.2-0.1,3,0.4,2.5,2.8c-0.9,4.3-0.8,4.3-5.3,4.3c-2.9,0-5.9,0.1-8.8,0
					c-2.4-0.1-2.2,1.8-2.6,3.2c0,0.1,1.5,1.1,2.4,1.1c4.6,0.1,9.2,0.1,14.3,0.1c-0.7,2.6-1.3,4.9-2,7.3c-8.5,0-17,0-26.1,0
					c1.3-5.8,2.7-11.3,3.9-16.8c0.7-3.1,1.1-6.2,1.6-9.3c0.2-0.8,0.8-1.6,0.9-2.4c0.2-2.1,1.7-1.9,3.1-1.9c6.7,0,13.4,0,20.1,0
					c0.8,0,1.6,0,2.8,0c-0.5,2.8-0.9,5.3-1.3,8c-4.4,0-8.8,0-13.3,0C336,322.8,336,322.8,335.7,326.5z"/>
				<path class="st2" d="M229.3,314.9c-0.5,2.4-0.7,4.4-1.3,6.2c-0.2,0.7-1.5,1.4-2.3,1.4c-4.6,0.1-9.2,0.1-13.7,0.1
					c-0.5,1.1-0.8,2.1-1.3,3.3c4.2,2.2,9.2,0.1,14,1.2c0,1.2,0.2,2.4,0,3.6c-0.2,1.6-0.9,2.7-2.9,2.6c-3.1-0.2-6.2,0-9.3,0
					c-3.1,0-4,1-3.9,4.7c5.3,0,10.6,0,16.3,0c-0.5,2.5-0.9,4.7-1.4,7.1c-8.7,0-17.4,0-26.7,0c0.9-2.9,1.8-5.6,2.5-8.4
					c0.4-1.7,0.6-3.4,0.9-5.1c0.6-3,1.3-6,1.9-9c0.4-2.2,0.7-4.4,1.2-6.6c0.1-0.4,0.9-1,1.3-1C212.8,314.9,221.1,314.9,229.3,314.9z
					"/>
				<path class="st2" d="M412.9,324c-2.5,0-5,0-7.6,0c-0.4,0-0.9-0.4-1.1-0.7c-1.4-2.3-3.6-3.2-5.8-2c-0.7,0.4-1.4,1.3-1.5,2
					c-0.1,0.5,0.8,1.3,1.4,1.8c0.5,0.4,1.3,0.4,1.9,0.6c3.3,1.1,6.6,2.2,9.8,3.5c1.6,0.6,2.3,4,1.8,6.8c-0.9,4.9-3.8,7.7-8.5,9.1
					c-5.2,1.5-10.3,1.8-15.4-0.2c-3.3-1.3-5.3-5.2-4.2-8.5c0.2-0.5,1-1,1.6-1c1.5-0.1,3-0.1,4.5-0.1c1.7,0,3.4-0.6,3.8,2.2
					c0.1,0.8,2.7,1.8,4.1,1.8c1.3,0,2.6-1.3,4-2.1c-0.4-0.7-0.7-1.9-1.4-2.1c-3-1.2-6-2.3-9-3.3c-3.8-1.3-5.4-6.2-3.4-9.7
					c4.7-8.2,11.7-8.4,19.5-7.3C410.9,315.1,414.6,319.7,412.9,324z"/>
				<path class="st2" d="M286.3,323.7c-2.4,0-4.6,0-6.9,0c-0.5,0-1.2-0.1-1.3-0.4c-1.7-3.1-4.4-2.4-7.4-2.1
					c-0.1,1.1-0.2,2.3-0.3,3.7c3.3,0.7,6.4,1.4,9.5,2.1c2.5,0.5,5.1,3.9,5.3,6.4c0.6,6.2-4.6,11.3-10.5,11.8c-2.5,0.2-5,1.6-7.3,1.2
					c-3.5-0.6-7.5-1.1-9.4-4.9c-0.8-1.7-0.7-3.8-1-6.1c2,0,3.6,0,5.1,0c1.5,0,3,0,4,0c0.8,1.4,1.2,3.2,1.9,3.3
					c2.1,0.3,4.3,0.2,6.3-0.1c0.5-0.1,1.1-1.6,1-2.4c-0.1-0.6-1.1-1.3-1.8-1.6c-2.9-1-5.8-1.8-8.6-2.8c-4.1-1.5-4.6-5.5-3-9.7
					c1.4-3.6,4.1-5.6,6.9-6.7c3.1-1.2,6.8-1,10.2-1c1.4,0,3,1,4.3,1.8C286.8,318.3,287.1,319,286.3,323.7z"/>
				<path class="st2" d="M227.9,335.5c2.5,0,4.6,0,6.6,0c1.9-0.1,3.6,0,3.7,2.5c0,0.3,0.2,0.6,0.5,0.8c1,0.8,5.9,0.2,6.8-0.7
					c1.6-1.4,0.8-2.8-0.4-3.4c-2.3-1.1-4.8-2-7.4-2.6c-2.3-0.6-4.9-1.1-5.3-3.6c-0.6-3.1-0.8-6.4,1.8-9.1c4-4.3,9-6,14.7-5.3
					c3.2,0.4,6.6,1.1,7.9,4.7c0.5,1.4,0.6,3,0.9,4.8c-2.9,0-5.3,0-7.7,0c-0.4,0-0.9-0.2-1.3-0.5c-3.3-2.9-4.8-3-7.9-0.2
					c1.6,3.9,5.6,3.1,8.5,3.9c4.8,1.3,8.1,4.6,6.9,9.1c-0.8,3.2-2.7,6.6-6,7.8c-3.9,1.5-7.9,3.6-12.3,2.7c-3.6-0.8-7.4-1.8-9.5-5.1
					C227.6,340,228.1,337.7,227.9,335.5z"/>
				<path class="st2" d="M133.8,345.2c0.5-3.6,0.5-6.9,1.6-9.8c1.4-3.7,1.8-7.4,2.5-11.1c0.5-3.1,1.7-6,2.7-9.3
					c6.1,0,12.6-0.3,19,0.2c1.7,0.1,3.7,1.5,5,3.7c1.1,2,1.7,3.9,1.2,5.7c-0.7,2.5-2.1,4.8-3.6,6.9c-3.3,4.9-8.5,4.3-13.5,4.3
					c-2.9,0-4.7,1.7-4.9,4.7c-0.1,0.7,0,1.3-0.1,2c-0.1,1.8-0.9,2.9-3,2.8C138.5,345.1,136.4,345.2,133.8,345.2z M151.6,322.1
					c-3.8,0.4-3.8,0.4-4.5,3.9c-0.1,0.4-0.4,0.8-0.4,1.1c0,0.6,0.1,1.3,0.5,1.6c1.2,1.2,6.9,0.4,7.6-1.2c0.6-1.2,1.2-3.1,0.7-3.8
					C154.8,322.9,153,322.7,151.6,322.1z"/>
			</g>
		</g>
	</g>
</g>
</svg>
